<?xml version="1.0" encoding="UTF-8" ?>
<!DOCTYPE svg PUBLIC "-//W3C//DTD SVG 1.1//EN" "http://www.w3.org/Graphics/SVG/1.1/DTD/svg11.dtd">
<svg width="776pt" height="494pt" viewBox="0 0 776 494" version="1.1" xmlns="http://www.w3.org/2000/svg">
<path fill="#ffffff" stroke="#ffffff" stroke-width="0.09375" d=" M 0.0 0.0 L 776.0 0.0 L 776.0 494.0 L 0.0 494.0 L 0.0 0.0 Z" />
<path fill="#172b5a" stroke="#172b5a" stroke-width="0.09375" d=" M 257.7 3.9 C 261.9 3.1 266.3 2.9 270.5 3.7 C 269.0 4.4 267.5 5.1 265.9 5.8 C 273.6 8.1 282.1 6.6 289.3 10.6 C 292.7 11.6 294.0 15.1 295.0 18.1 C 297.6 23.8 299.4 29.7 302.2 35.3 C 302.3 37.1 302.3 38.9 302.3 40.7 C 302.3 44.2 302.6 47.7 303.2 51.2 C 303.1 57.4 303.1 63.8 305.2 69.8 C 306.2 72.5 304.6 75.2 303.9 77.7 C 302.4 82.0 302.2 86.5 301.8 90.9 C 300.3 91.3 298.8 91.7 297.3 92.1 C 298.2 93.1 299.1 94.1 299.9 95.1 C 299.2 95.4 298.4 95.7 297.6 95.9 C 296.1 94.1 294.4 92.3 292.6 90.6 C 292.7 92.2 292.8 93.7 292.8 95.3 C 291.6 94.7 290.3 94.1 289.1 93.5 C 289.2 96.6 289.2 99.7 289.3 102.8 C 288.1 102.2 286.9 101.6 285.7 101.1 C 284.8 104.9 283.7 108.7 282.3 112.4 C 282.1 110.6 281.8 108.7 281.6 106.9 C 279.6 112.9 277.5 118.9 274.4 124.4 C 272.2 128.3 270.7 132.7 270.1 137.2 C 268.8 136.9 267.6 136.7 266.3 136.4 C 266.6 138.0 266.8 139.6 267.1 141.2 C 266.1 141.2 265.2 141.4 264.2 141.7 C 265.0 143.7 265.6 145.8 266.8 147.6 C 268.2 147.1 269.5 146.6 270.9 146.0 C 271.1 147.6 272.3 149.6 271.0 151.0 C 268.5 154.2 264.5 155.8 261.9 158.8 C 261.0 160.2 260.8 161.9 260.3 163.5 C 255.7 165.0 251.2 167.4 248.0 171.1 C 247.5 173.0 248.0 174.9 248.2 176.8 C 247.9 177.2 247.3 178.0 247.0 178.5 C 246.5 176.8 245.9 175.2 245.4 173.6 C 241.6 173.9 237.6 174.7 234.6 177.3 C 231.9 179.7 232.7 184.4 229.7 186.4 C 228.0 186.2 226.4 185.6 224.8 185.1 C 224.7 186.1 224.6 187.1 224.5 188.1 C 223.0 187.4 221.2 187.4 219.6 186.6 C 218.9 188.5 218.5 190.6 217.2 192.3 C 215.7 193.3 213.8 193.7 212.1 194.3 C 211.8 196.7 212.4 199.6 210.3 201.4 C 208.8 203.2 206.4 202.1 204.4 201.9 C 204.3 202.3 203.9 203.1 203.8 203.5 C 201.0 203.0 198.1 203.3 195.5 204.4 C 195.6 205.6 195.7 206.7 195.8 207.9 C 195.0 207.8 194.2 207.7 193.4 207.6 C 193.1 208.6 192.9 209.6 192.7 210.6 C 190.5 210.3 187.7 208.8 186.0 210.9 C 185.0 212.3 185.0 214.1 184.5 215.8 C 182.3 215.8 180.1 215.8 177.8 215.9 C 177.9 215.3 178.2 214.0 178.3 213.4 C 181.4 211.5 184.5 209.5 187.0 206.7 C 180.7 207.5 175.8 211.9 169.8 213.6 C 164.1 215.5 157.2 215.5 152.4 211.7 C 149.4 209.4 145.8 208.3 142.2 207.6 C 141.1 205.1 139.3 202.6 139.8 199.7 C 140.3 196.6 141.0 193.5 141.5 190.4 C 142.1 190.2 143.2 189.9 143.8 189.7 C 142.3 194.3 142.3 199.2 142.4 204.0 C 144.8 202.8 147.9 202.0 148.8 199.1 C 151.2 192.7 155.3 187.1 157.5 180.6 C 160.6 172.1 164.6 164.0 169.3 156.3 C 172.9 150.1 178.1 145.0 181.7 138.7 C 183.9 134.7 186.5 130.8 189.7 127.4 C 186.5 127.7 183.6 129.2 181.3 131.4 C 183.2 128.0 184.5 124.1 187.9 122.0 C 191.6 119.7 195.3 117.6 198.5 114.8 C 197.9 113.5 197.3 112.2 196.7 110.8 C 198.1 109.6 199.3 108.2 200.7 107.0 C 202.3 107.7 203.9 108.5 205.7 108.9 C 206.4 108.0 207.1 107.0 207.7 106.0 C 210.3 105.2 213.1 104.1 215.7 105.2 C 218.6 106.4 221.6 106.5 224.7 106.8 C 227.4 108.1 231.4 110.0 230.8 113.7 C 230.7 116.9 229.6 120.1 228.1 122.9 C 225.1 128.6 223.0 134.7 221.6 140.9 C 223.6 140.5 225.5 140.0 227.5 139.5 C 228.6 141.1 229.8 142.7 230.9 144.3 C 232.1 142.1 233.3 139.8 234.9 137.9 C 236.3 136.5 238.2 135.8 239.7 134.5 C 240.0 133.3 240.4 132.0 240.6 130.8 C 239.3 131.7 238.1 132.8 236.9 133.8 C 240.6 128.4 243.6 122.5 246.4 116.6 C 245.5 113.2 243.9 110.1 243.3 106.7 C 244.0 101.6 245.0 96.6 246.7 91.7 C 247.5 89.4 247.5 86.8 247.1 84.3 C 247.4 83.8 248.1 82.7 248.4 82.2 C 249.0 83.3 249.7 84.3 250.3 85.3 C 251.4 84.6 252.7 84.1 253.7 83.2 C 254.5 80.2 254.8 77.0 256.1 74.1 C 254.9 74.5 253.7 74.9 252.5 75.4 C 252.0 73.3 251.4 71.3 250.9 69.3 C 253.8 68.1 256.9 67.1 259.2 64.8 C 259.6 63.3 258.3 62.4 257.4 61.6 C 255.2 60.0 253.1 58.1 252.0 55.6 C 251.5 53.6 251.1 51.5 250.8 49.4 C 251.4 49.7 252.5 50.3 253.1 50.6 C 252.7 49.1 252.1 47.7 251.9 46.1 C 252.1 45.5 252.6 44.3 252.9 43.6 C 251.6 43.9 250.2 44.1 248.9 44.3 C 246.4 44.7 243.8 44.4 241.3 44.0 C 241.5 42.7 241.7 41.4 241.9 40.1 C 241.3 40.9 240.8 41.6 240.2 42.4 C 238.2 42.3 235.8 41.5 234.2 43.1 C 231.1 45.7 228.3 48.7 225.0 51.0 C 220.7 54.1 215.9 56.5 211.5 59.5 C 206.8 62.7 201.1 64.1 196.5 67.5 C 193.4 69.9 189.9 71.8 186.1 72.9 C 186.8 73.0 188.3 73.2 189.1 73.2 C 184.3 77.2 179.2 80.9 173.8 84.1 C 171.1 85.9 167.1 86.2 165.5 89.5 C 164.1 91.7 163.1 94.3 161.1 96.1 C 158.6 98.3 155.4 99.8 153.2 102.4 C 150.8 105.2 148.2 107.9 145.2 110.1 C 142.7 112.2 139.5 114.1 138.4 117.4 C 137.6 120.1 136.8 122.7 135.6 125.2 C 135.0 124.8 133.8 123.9 133.2 123.5 C 130.7 126.3 128.5 129.4 126.8 132.9 C 130.8 130.8 135.0 129.2 138.7 126.6 C 140.9 123.0 143.2 118.9 143.0 114.6 C 144.7 114.4 146.7 114.5 147.9 112.9 C 152.0 108.1 157.0 104.0 161.0 99.1 C 164.2 101.4 164.2 105.3 164.5 108.8 C 162.3 110.9 160.2 113.0 158.0 115.1 C 154.3 117.9 150.0 120.2 147.2 124.1 C 146.1 126.0 145.1 128.0 144.0 129.9 C 140.2 136.9 131.7 139.8 128.5 147.3 C 127.7 146.9 126.8 146.6 125.9 146.2 C 126.6 143.8 127.2 141.4 127.9 138.9 C 125.1 138.9 122.3 138.9 119.5 138.9 C 119.4 139.7 119.3 140.4 119.2 141.2 C 118.2 141.7 117.2 142.1 116.2 142.6 C 116.4 143.9 116.5 145.3 117.0 146.6 C 118.0 147.6 119.3 148.3 120.5 149.0 C 117.8 150.1 116.2 152.4 115.4 155.1 C 113.9 158.9 109.5 160.0 106.1 161.2 C 103.9 165.3 101.8 169.3 99.2 173.1 C 96.0 177.7 95.0 183.2 92.9 188.3 C 91.3 192.0 90.5 195.9 89.5 199.8 C 88.5 203.1 85.0 204.6 82.6 206.8 C 79.1 209.0 82.2 214.3 78.6 216.7 C 77.5 212.0 78.5 207.2 80.0 202.6 C 78.6 202.7 77.2 202.8 75.7 202.8 C 76.3 199.3 78.1 196.2 80.1 193.2 C 81.7 191.0 80.4 188.2 79.7 185.9 C 81.3 181.7 83.0 177.5 86.0 174.1 C 85.9 173.8 85.5 173.1 85.4 172.8 C 87.1 169.5 88.6 166.1 90.1 162.7 C 90.8 162.9 91.4 163.2 92.1 163.4 C 91.7 160.9 91.0 158.5 91.0 156.0 C 91.5 154.5 92.5 153.2 93.3 151.9 C 93.4 153.2 93.4 154.5 93.5 155.7 C 93.6 155.9 94.0 156.4 94.2 156.6 C 97.5 153.3 100.6 150.0 103.0 146.0 C 104.3 143.5 107.0 142.3 108.5 140.0 C 110.3 134.4 108.4 128.6 106.8 123.3 C 108.5 122.1 110.3 120.8 112.0 119.7 C 111.3 122.2 110.2 124.6 108.7 126.7 C 111.1 126.4 113.6 126.0 116.0 125.7 C 116.4 125.0 116.9 124.3 117.4 123.5 C 116.4 123.5 115.5 123.6 114.5 123.6 C 114.5 120.6 114.6 117.5 115.2 114.5 C 115.9 116.2 116.6 117.9 117.2 119.6 C 118.5 118.7 119.8 117.8 120.8 116.6 C 121.3 114.9 121.4 113.2 121.6 111.4 C 120.9 111.4 119.6 111.4 118.9 111.4 C 119.2 109.6 119.5 107.7 119.8 105.9 C 118.3 105.8 116.8 105.7 115.4 105.5 C 115.5 104.0 115.6 102.4 115.7 100.8 C 116.2 100.3 117.2 99.3 117.6 98.8 C 120.1 97.1 122.0 94.7 123.7 92.1 C 121.9 92.5 120.2 92.8 118.5 93.3 C 121.2 88.8 125.6 85.8 129.5 82.4 C 133.4 79.0 137.8 76.1 141.7 72.7 C 146.8 67.8 151.6 62.6 157.2 58.2 C 160.0 56.2 162.7 54.2 165.4 52.1 C 170.1 48.6 173.9 43.6 179.6 41.5 C 183.8 40.0 187.8 37.8 191.7 35.6 C 194.5 34.1 197.3 32.5 200.1 30.9 C 200.2 29.6 200.2 28.3 200.3 27.1 L 200.3 26.4 C 205.4 24.2 210.2 21.5 215.5 19.8 C 215.6 20.4 215.7 21.4 215.8 21.9 C 214.5 23.3 213.2 24.7 212.0 26.1 C 219.8 24.8 226.3 19.5 234.1 18.0 C 238.3 17.1 242.5 15.7 246.1 13.4 C 248.0 12.4 249.3 10.7 249.9 8.8 C 252.7 7.4 255.1 5.5 257.7 3.9 Z" />
<path fill="#6b738c" stroke="#6b738c" stroke-width="0.09375" d=" M 270.5 3.7 C 276.9 2.8 282.2 7.2 288.0 8.9 C 290.3 10.0 293.6 9.8 294.8 12.4 C 295.8 14.1 295.3 16.2 295.0 18.1 C 294.0 15.1 292.7 11.6 289.3 10.6 C 282.1 6.6 273.6 8.1 265.9 5.8 C 267.5 5.1 269.0 4.4 270.5 3.7 Z" />
<path fill="#6b738c" stroke="#6b738c" stroke-width="0.09375" d=" M 257.4 12.5 C 259.1 11.2 260.6 9.6 262.4 8.6 C 264.5 8.1 266.3 9.7 268.1 10.4 C 265.0 12.1 261.4 12.8 258.0 13.6 C 257.8 13.4 257.6 12.8 257.4 12.5 Z" />
<path fill="#6b738c" stroke="#6b738c" stroke-width="0.09375" d=" M 215.4 19.1 C 223.0 18.1 229.6 14.1 237.0 12.2 C 240.0 12.9 243.0 13.7 246.1 13.4 C 242.5 15.7 238.3 17.1 234.1 18.0 C 226.3 19.5 219.8 24.8 212.0 26.1 C 213.2 24.7 214.5 23.3 215.8 21.9 C 215.7 21.4 215.6 20.4 215.5 19.8 L 215.4 19.1 Z" />
<path fill="#15346d" stroke="#15346d" stroke-width="0.09375" d=" M 236.7 24.7 C 240.4 23.7 243.5 21.3 246.8 19.4 C 247.3 22.6 245.7 25.4 244.0 27.8 C 243.1 27.7 242.3 27.6 241.5 27.5 C 240.9 30.0 240.3 32.5 239.7 35.0 C 239.4 33.9 239.0 32.9 238.6 31.8 C 234.8 32.6 232.1 37.2 228.0 35.8 C 226.0 38.0 224.1 40.3 222.4 42.6 C 221.2 41.4 220.0 40.3 218.8 39.1 C 219.5 39.0 220.8 38.9 221.5 38.8 C 221.2 37.3 221.0 35.9 220.8 34.4 C 219.9 34.7 219.0 35.0 218.1 35.4 C 218.2 34.8 218.5 33.7 218.7 33.2 C 217.3 33.1 215.9 33.0 214.5 32.8 C 217.9 31.0 222.0 32.3 225.1 30.1 C 228.8 27.9 232.6 26.0 236.7 24.7 Z" />
<path fill="#15346d" stroke="#15346d" stroke-width="0.09375" d=" M 186.6 34.0 C 191.1 31.6 195.4 28.7 200.3 27.1 C 200.2 28.3 200.2 29.6 200.1 30.9 C 197.3 32.5 194.5 34.1 191.7 35.6 C 190.2 34.5 188.5 33.9 186.6 34.0 Z" />
<path fill="#010101" stroke="#010101" stroke-width="0.09375" d=" M 301.4 31.0 C 339.6 31.0 377.8 31.0 416.1 31.0 C 424.3 31.8 432.5 33.2 440.4 35.6 C 464.7 42.4 487.9 54.2 506.5 71.4 C 511.3 75.0 514.6 80.1 518.7 84.3 C 529.9 98.0 538.3 113.8 543.3 130.8 C 547.5 143.4 548.7 156.8 550.0 169.9 C 550.0 177.0 550.0 184.0 550.0 191.1 C 548.6 202.2 548.1 213.6 545.5 224.6 C 542.2 240.3 536.6 255.6 528.7 269.7 C 508.0 306.2 469.0 332.1 427.1 336.0 C 380.0 336.0 333.0 336.0 286.0 336.0 C 286.3 332.1 285.3 327.9 286.5 324.2 C 289.5 319.8 292.6 315.4 295.0 310.7 C 306.0 305.0 314.6 295.9 323.7 287.8 C 326.5 285.5 328.6 282.6 330.8 279.8 C 335.0 275.3 341.2 273.3 345.5 268.8 C 346.4 267.8 347.3 266.8 348.2 265.8 C 348.9 267.1 349.4 268.5 350.0 269.9 C 372.0 270.1 394.0 270.0 416.1 270.0 C 426.3 269.2 436.7 267.5 446.0 263.1 C 452.9 259.7 459.6 255.5 464.8 249.8 C 477.0 236.5 483.0 218.7 485.0 201.0 C 486.2 194.7 486.0 188.3 486.0 182.0 C 486.6 169.3 483.8 156.6 479.1 144.8 C 473.6 132.4 465.2 121.1 454.5 112.6 C 448.4 108.1 442.3 103.5 435.2 100.9 C 426.9 97.3 418.1 94.8 409.0 94.0 C 378.0 94.0 347.0 94.0 316.0 94.0 C 311.1 94.0 306.3 94.2 301.4 93.7 C 301.5 93.0 301.7 91.6 301.8 90.9 C 302.2 86.5 302.4 82.0 303.9 77.7 C 304.6 75.2 306.2 72.5 305.2 69.8 C 303.1 63.8 303.1 57.4 303.2 51.2 C 303.2 47.7 302.8 44.2 302.3 40.7 C 302.3 38.9 302.3 37.1 302.2 35.3 C 302.1 33.9 301.7 32.4 301.4 31.0 Z" />
<path fill="#6b738c" stroke="#6b738c" stroke-width="0.09375" d=" M 164.0 49.0 C 171.5 43.9 178.7 38.4 186.6 34.0 C 188.5 33.9 190.2 34.5 191.7 35.6 C 187.8 37.8 183.8 40.0 179.6 41.5 C 173.9 43.6 170.1 48.6 165.4 52.1 C 164.9 51.1 164.5 50.0 164.0 49.0 Z" />
<path fill="#010101" stroke="#010101" stroke-width="0.09375" d=" M 581.2 34.9 C 604.4 34.9 627.7 34.5 651.0 34.7 C 650.6 45.2 652.2 55.6 652.1 66.1 C 652.9 71.2 652.9 76.4 654.8 81.2 C 655.6 87.7 662.2 90.5 666.3 94.8 C 684.6 111.1 701.6 128.9 717.0 148.1 C 728.1 162.0 738.4 176.8 746.0 193.0 C 751.3 204.4 754.9 216.6 756.9 229.0 C 757.0 235.9 759.0 242.9 757.5 249.8 C 755.2 286.2 729.9 320.1 695.6 332.6 C 691.7 333.5 688.1 335.3 684.1 335.0 C 646.1 334.9 608.0 335.1 570.1 335.3 C 570.0 313.6 570.0 291.8 570.0 270.1 C 595.4 269.9 620.7 270.0 646.0 269.9 C 655.6 268.7 664.6 264.2 671.8 257.8 C 679.5 249.8 683.8 239.0 684.0 228.0 C 683.3 216.7 678.9 205.8 672.2 196.8 C 666.2 188.5 659.6 180.8 652.1 173.9 C 649.0 171.8 646.6 168.8 643.6 166.4 C 636.5 160.9 629.7 154.9 622.7 149.3 C 610.9 139.3 599.7 128.1 592.9 114.1 C 587.6 104.2 584.8 93.2 582.8 82.2 C 581.6 78.5 582.4 74.5 581.2 70.8 C 580.8 66.7 581.2 62.5 580.5 58.5 C 579.0 50.6 581.0 42.7 581.2 34.9 Z" />
<path fill="#010101" stroke="#010101" stroke-width="0.09375" d=" M 240.2 42.4 C 240.8 41.6 241.3 40.9 241.9 40.1 C 241.7 41.4 241.5 42.7 241.3 44.0 L 240.8 44.3 C 238.0 46.3 235.0 48.1 231.9 49.7 C 230.3 50.5 228.8 51.4 227.4 52.3 C 219.5 57.8 210.6 61.9 203.9 68.8 C 197.3 72.4 190.6 76.0 184.5 80.3 C 178.8 82.7 174.2 86.8 170.3 91.5 C 170.6 91.8 171.4 92.5 171.8 92.9 C 168.3 95.1 164.6 97.0 161.0 99.1 C 157.0 104.0 152.0 108.1 147.9 112.9 C 146.7 114.5 144.7 114.4 143.0 114.6 C 143.2 118.9 140.9 123.0 138.7 126.6 C 135.0 129.2 130.8 130.8 126.8 132.9 C 128.5 129.4 130.7 126.3 133.2 123.5 C 133.8 123.9 135.0 124.8 135.6 125.2 C 136.8 122.7 137.6 120.1 138.4 117.4 C 139.5 114.1 142.7 112.2 145.2 110.1 C 148.2 107.9 150.8 105.2 153.2 102.4 C 155.4 99.8 158.6 98.3 161.1 96.1 C 163.1 94.3 164.1 91.7 165.5 89.5 C 167.1 86.2 171.1 85.9 173.8 84.1 C 179.2 80.9 184.3 77.2 189.1 73.2 C 188.3 73.2 186.8 73.0 186.1 72.9 C 189.9 71.8 193.4 69.9 196.5 67.5 C 201.1 64.1 206.8 62.7 211.5 59.5 C 215.9 56.5 220.7 54.1 225.0 51.0 C 228.3 48.7 231.1 45.7 234.2 43.1 C 235.8 41.5 238.2 42.3 240.2 42.4 Z" />
<path fill="#ffffff" stroke="#ffffff" stroke-width="0.09375" d=" M 302.3 40.7 C 302.8 44.2 303.2 47.7 303.2 51.2 C 302.6 47.7 302.3 44.2 302.3 40.7 Z" />
<path fill="#babec7" stroke="#babec7" stroke-width="0.09375" d=" M 231.9 49.7 C 235.0 48.1 238.0 46.3 240.8 44.3 C 238.1 46.4 236.0 51.2 231.9 49.7 Z" />
<path fill="#15346d" stroke="#15346d" stroke-width="0.09375" d=" M 240.8 44.3 L 241.3 44.0 C 243.8 44.4 246.4 44.7 248.9 44.3 C 249.0 44.8 249.2 45.9 249.3 46.5 C 250.2 46.3 251.0 46.2 251.9 46.1 C 252.1 47.7 252.7 49.1 253.1 50.6 C 252.5 50.3 251.4 49.7 250.8 49.4 C 251.1 51.5 251.5 53.6 252.0 55.6 C 246.6 56.4 241.3 57.9 236.3 60.3 C 230.8 62.9 224.8 65.0 220.1 69.1 C 217.9 69.9 215.7 70.6 213.4 71.3 C 213.8 72.7 214.1 74.0 214.5 75.4 C 210.4 79.3 206.0 82.8 202.0 86.9 C 197.8 88.7 191.7 87.2 188.8 91.7 C 185.0 97.3 178.5 100.4 175.2 106.3 C 173.5 109.2 171.3 111.7 169.2 114.2 C 166.1 117.7 164.9 122.4 162.0 126.1 C 157.5 131.5 152.6 136.8 148.8 142.9 C 147.6 144.8 146.4 146.6 145.2 148.4 C 144.8 147.8 144.0 146.5 143.7 145.9 C 145.7 142.3 146.5 138.3 146.7 134.2 C 148.6 131.0 150.9 127.9 153.1 124.9 C 151.1 124.7 149.2 124.4 147.2 124.1 C 150.0 120.2 154.3 117.9 158.0 115.1 C 158.1 115.6 158.2 116.5 158.3 117.0 C 161.7 115.0 164.7 112.3 167.2 109.2 C 166.5 109.1 165.2 108.9 164.5 108.8 C 164.2 105.3 164.2 101.4 161.0 99.1 C 164.6 97.0 168.3 95.1 171.8 92.9 C 176.6 89.8 181.4 86.8 186.6 84.7 C 194.0 81.6 199.5 75.3 203.9 68.8 C 210.6 61.9 219.5 57.8 227.4 52.3 C 228.8 51.4 230.3 50.5 231.9 49.7 C 236.0 51.2 238.1 46.4 240.8 44.3 Z" />
<path fill="#6b738c" stroke="#6b738c" stroke-width="0.09375" d=" M 248.9 44.3 C 250.2 44.1 251.6 43.9 252.9 43.6 C 252.6 44.3 252.1 45.5 251.9 46.1 C 251.0 46.2 250.2 46.3 249.3 46.5 C 249.2 45.9 249.0 44.8 248.9 44.3 Z" />
<path fill="#babec7" stroke="#babec7" stroke-width="0.09375" d=" M 157.2 58.2 C 158.1 54.3 160.6 51.0 164.0 49.0 C 164.5 50.0 164.9 51.1 165.4 52.1 C 162.7 54.2 160.0 56.2 157.2 58.2 Z" />
<path fill="#ffffff" stroke="#ffffff" stroke-width="0.09375" d=" M 236.3 60.3 C 241.3 57.9 246.6 56.4 252.0 55.6 C 253.1 58.1 255.2 60.0 257.4 61.6 C 255.0 63.4 252.4 64.7 249.6 65.7 C 246.0 66.7 242.5 68.7 241.7 72.7 C 243.4 72.9 245.0 73.2 246.7 73.4 C 246.4 74.5 246.1 75.5 245.9 76.6 C 246.0 79.2 246.6 81.8 247.1 84.3 C 247.5 86.8 247.5 89.4 246.7 91.7 C 245.0 96.6 244.0 101.6 243.3 106.7 C 241.8 109.7 240.5 112.9 239.5 116.2 C 237.1 124.8 230.2 131.1 227.5 139.5 C 225.5 140.0 223.6 140.5 221.6 140.9 C 223.0 134.7 225.1 128.6 228.1 122.9 C 229.6 120.1 230.7 116.9 230.8 113.7 C 231.4 110.0 227.4 108.1 224.7 106.8 C 221.6 106.5 218.6 106.4 215.7 105.2 C 213.1 104.1 210.3 105.2 207.7 106.0 C 207.2 105.3 206.1 104.1 205.6 103.4 C 203.9 104.5 202.2 105.6 200.7 107.0 C 199.3 108.2 198.1 109.6 196.7 110.8 C 187.9 117.2 181.2 125.7 173.6 133.4 C 173.0 134.0 172.3 134.6 171.7 135.2 C 170.8 136.0 169.9 136.9 169.0 137.7 C 168.8 137.1 168.6 135.9 168.5 135.3 C 161.1 138.5 156.5 145.4 152.4 152.0 C 145.9 161.1 144.3 173.5 135.2 180.7 C 134.1 179.1 133.2 177.6 132.2 176.1 C 130.9 177.9 129.6 179.7 128.3 181.5 C 123.1 191.3 123.2 202.8 123.3 213.7 C 120.0 213.9 116.5 214.1 113.8 216.3 C 113.0 219.7 112.6 223.2 111.7 226.6 C 111.4 227.2 111.2 227.9 111.0 228.5 C 109.9 228.2 108.8 227.8 107.7 227.3 C 108.3 232.1 112.5 235.2 115.8 238.2 C 119.8 239.2 124.5 238.5 127.9 241.1 C 129.7 242.4 131.7 243.5 133.9 244.0 C 140.2 245.2 146.9 247.0 153.0 244.1 C 156.9 243.8 160.7 242.7 164.4 241.4 C 169.5 239.5 175.2 241.4 180.2 239.2 C 183.3 237.7 186.3 235.9 189.3 234.3 C 194.7 231.5 198.3 226.4 203.5 223.5 C 206.9 221.4 210.7 220.1 214.1 218.0 C 219.2 214.3 224.3 210.3 228.3 205.4 C 229.5 204.0 230.8 202.7 232.1 201.4 C 234.8 198.9 236.7 195.7 238.7 192.6 C 241.5 188.4 246.7 187.2 250.7 184.6 C 259.0 179.9 265.8 172.9 271.1 165.0 C 276.3 158.4 280.7 151.2 285.7 144.5 C 285.9 147.4 286.0 150.2 286.0 153.0 C 286.0 182.7 286.0 212.3 286.0 242.0 C 286.0 245.8 285.9 249.5 286.2 253.3 C 286.4 254.1 286.5 255.0 286.7 255.8 C 284.1 258.1 281.6 260.5 279.1 262.8 C 275.6 265.8 272.0 268.7 268.3 271.5 C 268.1 271.1 267.7 270.3 267.5 269.9 C 268.8 266.8 269.9 263.7 271.5 260.8 C 268.0 264.2 264.6 267.7 261.1 271.1 C 258.7 272.8 255.9 273.5 253.2 274.6 C 252.8 274.7 252.0 274.9 251.6 275.1 C 249.5 275.6 247.5 276.5 245.8 277.9 C 242.7 277.9 239.5 278.6 237.7 281.4 C 237.3 281.8 236.5 282.7 236.1 283.1 C 230.5 284.2 224.2 281.5 219.3 285.2 C 216.8 286.9 216.4 290.2 215.4 292.8 C 212.1 292.1 208.2 290.6 205.6 293.5 C 205.0 294.3 204.4 295.1 203.8 295.8 C 202.3 297.0 200.7 298.2 199.1 299.2 C 199.1 300.6 199.1 301.9 199.0 303.2 C 195.3 303.9 191.5 303.8 187.9 305.0 C 185.0 305.9 182.0 305.1 179.0 305.3 C 175.5 303.0 171.5 301.4 167.2 302.5 C 166.9 303.6 166.5 304.8 166.2 305.9 C 160.9 306.2 155.0 305.0 150.3 308.0 C 144.0 306.3 137.9 303.4 133.0 299.1 C 129.5 294.2 125.9 289.4 121.0 285.7 C 116.8 279.8 110.2 275.6 107.3 268.7 C 103.8 260.0 101.4 250.9 99.5 241.7 C 98.9 235.1 100.0 228.4 100.5 221.8 C 100.8 216.1 99.6 210.3 101.4 204.7 C 102.7 198.8 106.0 193.6 107.9 187.8 C 109.8 182.6 112.7 177.9 114.7 172.8 C 115.7 170.5 116.7 168.2 118.2 166.2 C 122.6 160.5 125.7 153.9 128.5 147.3 C 131.7 139.8 140.2 136.9 144.0 129.9 C 144.9 130.4 145.9 131.0 146.8 131.5 C 146.8 132.2 146.7 133.5 146.7 134.2 C 146.5 138.3 145.7 142.3 143.7 145.9 C 142.9 147.7 142.3 149.6 141.7 151.5 C 142.5 152.0 144.0 152.9 144.8 153.4 C 146.6 150.2 147.8 146.5 148.8 142.9 C 152.6 136.8 157.5 131.5 162.0 126.1 C 164.9 122.4 166.1 117.7 169.2 114.2 C 171.3 111.7 173.5 109.2 175.2 106.3 C 178.5 100.4 185.0 97.3 188.8 91.7 C 191.7 87.2 197.8 88.7 202.0 86.9 C 206.0 82.8 210.4 79.3 214.5 75.4 C 216.5 73.4 218.3 71.2 220.1 69.1 C 224.8 65.0 230.8 62.9 236.3 60.3 Z" />
<path fill="#15346d" stroke="#15346d" stroke-width="0.09375" d=" M 257.4 61.6 C 258.3 62.4 259.6 63.3 259.2 64.8 C 256.9 67.1 253.8 68.1 250.9 69.3 C 251.4 71.3 252.0 73.3 252.5 75.4 C 253.7 74.9 254.9 74.5 256.1 74.1 C 254.8 77.0 254.5 80.2 253.7 83.2 C 252.7 84.1 251.4 84.6 250.3 85.3 C 249.7 84.3 249.0 83.3 248.4 82.2 C 248.1 82.7 247.4 83.8 247.1 84.3 C 246.6 81.8 246.0 79.2 245.9 76.6 C 246.9 76.1 248.0 75.5 249.0 74.8 C 249.6 71.8 249.3 68.7 249.6 65.7 C 252.4 64.7 255.0 63.4 257.4 61.6 Z" />
<path fill="#15346d" stroke="#15346d" stroke-width="0.09375" d=" M 296.5 63.7 C 299.0 67.3 300.0 71.7 302.3 75.3 C 300.8 78.0 300.7 81.1 299.9 84.0 C 296.7 84.5 297.3 80.2 299.0 78.8 C 298.8 78.3 298.4 77.4 298.1 76.9 C 296.7 77.2 295.4 77.5 294.0 77.8 C 293.7 75.7 293.4 73.6 293.2 71.5 C 294.4 70.9 295.6 70.3 296.8 69.8 C 296.7 67.7 296.5 65.7 296.5 63.7 Z" />
<path fill="#010101" stroke="#010101" stroke-width="0.09375" d=" M 170.0 76.0 C 173.8 71.6 180.0 70.5 184.0 66.2 C 183.2 68.4 182.9 70.7 181.5 72.6 C 176.1 77.4 169.6 80.7 163.8 84.9 C 163.2 84.2 162.6 83.5 161.9 82.7 C 164.6 80.4 167.6 78.5 170.0 76.0 Z" />
<path fill="#6b738c" stroke="#6b738c" stroke-width="0.09375" d=" M 241.7 72.7 C 242.5 68.7 246.0 66.7 249.6 65.7 C 249.3 68.7 249.6 71.8 249.0 74.8 C 248.0 75.5 246.9 76.1 245.9 76.6 C 246.1 75.5 246.4 74.5 246.7 73.4 C 245.0 73.2 243.4 72.9 241.7 72.7 Z" />
<path fill="#172b5a" stroke="#172b5a" stroke-width="0.09375" d=" M 184.5 80.3 C 190.6 76.0 197.3 72.4 203.9 68.8 C 199.5 75.3 194.0 81.6 186.6 84.7 C 181.4 86.8 176.6 89.8 171.8 92.9 C 171.4 92.5 170.6 91.8 170.3 91.5 C 174.2 86.8 178.8 82.7 184.5 80.3 Z" />
<path fill="#6b738c" stroke="#6b738c" stroke-width="0.09375" d=" M 213.4 71.3 C 215.7 70.6 217.9 69.9 220.1 69.1 C 218.3 71.2 216.5 73.4 214.5 75.4 C 214.1 74.0 213.8 72.7 213.4 71.3 Z" />
<path fill="#15346d" stroke="#15346d" stroke-width="0.09375" d=" M 292.6 90.6 C 294.4 92.3 296.1 94.1 297.6 95.9 C 298.4 95.7 299.2 95.4 299.9 95.1 C 299.1 94.1 298.2 93.1 297.3 92.1 C 298.8 91.7 300.3 91.3 301.8 90.9 C 301.7 91.6 301.5 93.0 301.4 93.7 C 299.4 104.8 296.6 115.7 294.4 126.7 C 292.8 133.0 289.1 138.4 286.0 143.9 L 285.7 144.5 C 280.7 151.2 276.3 158.4 271.1 165.0 C 265.8 172.9 259.0 179.9 250.7 184.6 C 246.7 187.2 241.5 188.4 238.7 192.6 C 236.7 195.7 234.8 198.9 232.1 201.4 C 230.5 200.2 228.9 199.0 227.3 197.8 C 226.4 197.2 225.6 196.7 224.7 196.2 C 222.3 197.8 220.4 200.0 218.4 202.0 C 215.3 203.2 212.6 204.9 210.5 207.4 C 207.0 211.4 201.8 212.9 197.2 215.2 C 192.8 217.3 188.8 220.2 184.6 222.7 C 180.6 225.1 176.3 227.0 172.4 229.5 C 174.9 230.2 177.3 229.6 179.0 227.7 C 183.1 227.5 187.3 227.2 190.9 224.8 C 196.2 221.4 201.8 218.6 207.6 216.0 C 210.8 214.7 214.3 213.6 216.9 211.2 C 218.9 209.6 220.3 207.2 222.5 205.8 C 224.4 205.3 226.4 205.4 228.3 205.4 C 224.3 210.3 219.2 214.3 214.1 218.0 C 205.7 218.3 197.3 221.2 191.4 227.3 C 189.9 229.3 189.8 231.9 189.3 234.3 C 186.3 235.9 183.3 237.7 180.2 239.2 C 175.2 241.4 169.5 239.5 164.4 241.4 C 160.7 242.7 156.9 243.8 153.0 244.1 C 154.4 243.2 155.7 242.3 157.0 241.4 C 155.6 241.3 154.2 241.1 152.8 241.0 C 153.6 240.2 154.4 239.3 155.3 238.5 C 150.2 239.3 144.8 240.0 139.9 238.2 C 136.1 236.5 133.0 233.5 129.3 231.7 C 126.2 229.9 122.6 229.1 119.4 227.7 C 117.5 227.0 117.3 224.9 116.9 223.3 C 117.9 223.5 119.0 223.7 120.1 223.9 C 120.4 223.4 121.1 222.5 121.4 222.1 C 122.1 223.3 122.8 224.5 123.4 225.7 C 124.8 222.7 126.7 220.0 128.0 216.9 C 127.6 212.6 125.2 208.5 126.1 204.1 C 127.2 198.2 128.4 192.3 129.1 186.3 C 129.3 184.6 128.7 183.0 128.3 181.5 C 129.6 179.7 130.9 177.9 132.2 176.1 C 133.2 177.6 134.1 179.1 135.2 180.7 C 144.3 173.5 145.9 161.1 152.4 152.0 C 155.6 151.8 159.0 151.5 161.7 149.7 C 165.0 147.6 167.9 144.9 171.2 142.8 C 171.2 143.7 171.2 144.6 171.3 145.5 C 166.8 149.3 162.3 153.3 159.7 158.6 C 155.8 165.7 153.4 173.5 148.8 180.1 C 148.1 177.6 146.9 175.3 145.3 173.3 C 144.4 174.6 143.5 175.9 142.7 177.2 C 143.3 178.9 143.8 180.6 144.4 182.2 C 145.9 181.5 147.3 180.8 148.8 180.1 C 146.8 183.2 145.1 186.4 143.8 189.7 C 143.2 189.9 142.1 190.2 141.5 190.4 C 141.0 193.5 140.3 196.6 139.8 199.7 C 139.3 202.6 141.1 205.1 142.2 207.6 C 145.8 208.3 149.4 209.4 152.4 211.7 C 157.2 215.5 164.1 215.5 169.8 213.6 C 175.8 211.9 180.7 207.5 187.0 206.7 C 184.5 209.5 181.4 211.5 178.3 213.4 C 178.2 214.0 177.9 215.3 177.8 215.9 C 180.1 215.8 182.3 215.8 184.5 215.8 C 185.0 214.1 185.0 212.3 186.0 210.9 C 187.7 208.8 190.5 210.3 192.7 210.6 C 192.9 209.6 193.1 208.6 193.4 207.6 C 194.2 207.7 195.0 207.8 195.8 207.9 C 195.7 206.7 195.6 205.6 195.5 204.4 C 198.1 203.3 201.0 203.0 203.8 203.5 C 203.9 203.1 204.3 202.3 204.4 201.9 C 206.4 202.1 208.8 203.2 210.3 201.4 C 212.4 199.6 211.8 196.7 212.1 194.3 C 213.8 193.7 215.7 193.3 217.2 192.3 C 218.5 190.6 218.9 188.5 219.6 186.6 C 221.2 187.4 223.0 187.4 224.5 188.1 C 224.6 187.1 224.7 186.1 224.8 185.1 C 226.4 185.6 228.0 186.2 229.7 186.4 C 232.7 184.4 231.9 179.7 234.6 177.3 C 237.6 174.7 241.6 173.9 245.4 173.6 C 245.9 175.2 246.5 176.8 247.0 178.5 C 247.3 178.0 247.9 177.2 248.2 176.8 C 248.0 174.9 247.5 173.0 248.0 171.1 C 251.2 167.4 255.7 165.0 260.3 163.5 C 260.8 161.9 261.0 160.2 261.9 158.8 C 264.5 155.8 268.5 154.2 271.0 151.0 C 272.3 149.6 271.1 147.6 270.9 146.0 C 269.5 146.6 268.2 147.1 266.8 147.6 C 265.6 145.8 265.0 143.7 264.2 141.7 C 265.2 141.4 266.1 141.2 267.1 141.2 C 266.8 139.6 266.6 138.0 266.3 136.4 C 267.6 136.7 268.8 136.9 270.1 137.2 C 270.7 132.7 272.2 128.3 274.4 124.4 C 277.5 118.9 279.6 112.9 281.6 106.9 C 281.8 108.7 282.1 110.6 282.3 112.4 C 283.7 108.7 284.8 104.9 285.7 101.1 C 286.9 101.6 288.1 102.2 289.3 102.8 C 289.2 99.7 289.2 96.6 289.1 93.5 C 290.3 94.1 291.6 94.7 292.8 95.3 C 292.8 93.7 292.7 92.2 292.6 90.6 Z" />
<path fill="#15346d" stroke="#15346d" stroke-width="0.09375" d=" M 118.5 93.3 C 120.2 92.8 121.9 92.5 123.7 92.1 C 122.0 94.7 120.1 97.1 117.6 98.8 C 112.7 100.5 109.8 105.3 105.0 107.2 C 107.4 103.6 110.6 100.7 113.5 97.5 C 115.1 96.0 116.4 94.2 118.5 93.3 Z" />
<path fill="#ffffff" stroke="#ffffff" stroke-width="0.09375" d=" M 294.4 126.7 C 296.6 115.7 299.4 104.8 301.4 93.7 C 306.3 94.2 311.1 94.0 316.0 94.0 C 347.0 94.0 378.0 94.0 409.0 94.0 C 418.1 94.8 426.9 97.3 435.2 100.9 C 442.3 103.5 448.4 108.1 454.5 112.6 C 465.2 121.1 473.6 132.4 479.1 144.8 C 483.8 156.6 486.6 169.3 486.0 182.0 C 486.0 188.3 486.2 194.7 485.0 201.0 C 483.0 218.7 477.0 236.5 464.8 249.8 C 459.6 255.5 452.9 259.7 446.0 263.1 C 436.7 267.5 426.3 269.2 416.1 270.0 C 394.0 270.0 372.0 270.1 350.0 269.9 C 349.4 268.5 348.9 267.1 348.2 265.8 C 348.1 265.5 347.8 264.9 347.7 264.6 C 352.7 262.9 353.6 256.8 358.2 254.4 C 363.4 251.3 367.1 246.5 371.5 242.4 C 374.4 239.6 376.7 236.2 379.0 232.8 C 381.9 228.3 386.7 225.2 388.9 220.2 C 397.9 212.8 406.8 204.1 409.5 192.3 C 410.0 187.9 413.0 184.3 413.3 179.9 C 413.7 175.1 416.3 169.7 412.6 165.6 C 413.7 165.1 414.8 164.7 415.9 164.3 C 415.0 162.5 414.2 160.6 413.4 158.8 C 411.1 159.6 409.1 160.9 407.7 162.8 C 407.3 163.2 406.4 163.9 406.0 164.3 C 405.3 163.4 404.7 162.4 404.1 161.5 C 400.6 164.7 397.1 169.4 391.8 169.1 C 389.6 172.4 386.9 175.3 384.7 178.6 C 383.6 178.8 382.5 179.0 381.5 179.2 C 380.9 178.5 380.4 177.7 379.8 176.9 C 377.2 178.7 374.6 180.5 372.4 182.7 C 369.8 186.8 366.2 190.1 362.3 192.8 C 361.9 193.0 361.2 193.5 360.9 193.7 C 356.8 195.1 353.5 197.9 351.7 201.9 C 350.9 202.4 350.1 202.9 349.3 203.4 C 349.2 183.6 349.4 163.8 349.3 144.0 C 328.2 144.0 307.1 144.1 286.0 143.9 C 289.1 138.4 292.8 133.0 294.4 126.7 Z" />
<path fill="#babec7" stroke="#babec7" stroke-width="0.09375" d=" M 105.0 107.2 C 109.8 105.3 112.7 100.5 117.6 98.8 C 117.2 99.3 116.2 100.3 115.7 100.8 C 109.3 107.0 103.5 113.9 96.8 119.9 C 98.5 117.0 100.8 114.4 102.0 111.3 C 102.8 109.8 103.2 107.9 105.0 107.2 Z" />
<path fill="#15346d" stroke="#15346d" stroke-width="0.09375" d=" M 96.8 119.9 C 103.5 113.9 109.3 107.0 115.7 100.8 C 115.6 102.4 115.5 104.0 115.4 105.5 C 116.8 105.7 118.3 105.8 119.8 105.9 C 119.5 107.7 119.2 109.6 118.9 111.4 C 119.6 111.4 120.9 111.4 121.6 111.4 C 121.4 113.2 121.3 114.9 120.8 116.6 C 119.8 117.8 118.5 118.7 117.2 119.6 C 116.6 117.9 115.9 116.2 115.2 114.5 C 114.6 117.5 114.5 120.6 114.5 123.6 C 115.5 123.6 116.4 123.5 117.4 123.5 C 116.9 124.3 116.4 125.0 116.0 125.7 C 113.6 126.0 111.1 126.4 108.7 126.7 C 110.2 124.6 111.3 122.2 112.0 119.7 C 110.3 120.8 108.5 122.1 106.8 123.3 C 108.4 128.6 110.3 134.4 108.5 140.0 C 107.0 142.3 104.3 143.5 103.0 146.0 C 100.6 150.0 97.5 153.3 94.2 156.6 C 94.0 156.4 93.6 155.9 93.5 155.7 C 93.4 154.5 93.4 153.2 93.3 151.9 C 92.5 153.2 91.5 154.5 91.0 156.0 C 91.0 158.5 91.7 160.9 92.1 163.4 C 91.4 163.2 90.8 162.9 90.1 162.7 C 88.6 166.1 87.1 169.5 85.4 172.8 C 85.5 173.1 85.9 173.8 86.0 174.1 C 83.0 177.5 81.3 181.7 79.7 185.9 C 80.4 188.2 81.7 191.0 80.1 193.2 C 78.1 196.2 76.3 199.3 75.7 202.8 C 77.2 202.8 78.6 202.7 80.0 202.6 C 78.5 207.2 77.5 212.0 78.6 216.7 C 82.2 214.3 79.1 209.0 82.6 206.8 C 85.0 204.6 88.5 203.1 89.5 199.8 C 90.5 195.9 91.3 192.0 92.9 188.3 C 95.0 183.2 96.0 177.7 99.2 173.1 C 101.8 169.3 103.9 165.3 106.1 161.2 C 109.5 160.0 113.9 158.9 115.4 155.1 C 116.2 152.4 117.8 150.1 120.5 149.0 C 119.3 148.3 118.0 147.6 117.0 146.6 C 116.5 145.3 116.4 143.9 116.2 142.6 C 117.2 142.1 118.2 141.7 119.2 141.2 C 119.3 140.4 119.4 139.7 119.5 138.9 C 122.3 138.9 125.1 138.9 127.9 138.9 C 127.2 141.4 126.6 143.8 125.9 146.2 C 126.8 146.6 127.7 146.9 128.5 147.3 C 125.7 153.9 122.6 160.5 118.2 166.2 C 116.7 168.2 115.7 170.5 114.7 172.8 C 112.7 177.9 109.8 182.6 107.9 187.8 C 106.0 193.6 102.7 198.8 101.4 204.7 C 99.6 210.3 100.8 216.1 100.5 221.8 C 100.0 228.4 98.9 235.1 99.5 241.7 C 101.4 250.9 103.8 260.0 107.3 268.7 C 110.2 275.6 116.8 279.8 121.0 285.7 C 121.4 292.5 127.5 296.4 133.0 299.1 C 137.9 303.4 144.0 306.3 150.3 308.0 C 153.4 307.8 156.6 306.8 159.5 308.3 C 163.3 310.1 167.5 309.8 171.6 309.7 C 171.2 307.6 170.8 305.6 170.4 303.5 C 173.2 304.3 176.1 305.2 179.0 305.3 C 182.0 305.1 185.0 305.9 187.9 305.0 C 191.5 303.8 195.3 303.9 199.0 303.2 L 200.0 303.1 C 201.7 302.8 203.4 302.5 205.1 302.3 C 205.2 301.4 205.4 300.6 205.6 299.8 C 208.6 299.6 211.6 298.8 214.2 297.1 C 217.9 294.9 222.4 294.4 225.9 291.9 C 229.6 289.4 232.8 286.1 236.1 283.1 C 236.5 282.7 237.3 281.8 237.7 281.4 C 238.6 282.3 239.5 283.2 240.3 284.2 C 245.1 281.7 251.9 280.7 253.2 274.6 C 255.9 273.5 258.7 272.8 261.1 271.1 C 264.6 267.7 268.0 264.2 271.5 260.8 C 269.9 263.7 268.8 266.8 267.5 269.9 C 266.9 271.6 266.1 273.2 265.9 275.1 C 266.3 276.4 267.0 277.7 267.7 279.0 C 270.3 275.8 273.8 273.9 277.5 272.3 C 280.4 269.6 282.4 265.8 286.6 264.9 C 288.1 264.6 289.6 264.3 291.1 264.0 C 288.7 266.5 286.3 269.0 283.6 271.1 C 279.1 274.3 276.3 279.5 271.4 282.3 C 266.3 285.5 260.1 285.8 254.2 285.6 C 250.4 285.8 247.9 288.9 245.1 291.1 C 242.1 293.7 238.1 294.1 234.6 295.4 C 230.7 296.7 227.6 299.3 224.4 301.7 C 223.0 300.6 221.7 299.4 220.2 298.5 C 217.4 301.0 214.8 303.8 211.3 305.4 C 211.2 304.6 211.0 303.1 210.9 302.3 C 208.9 304.7 206.3 306.5 203.3 307.4 C 203.9 309.1 204.5 310.8 205.1 312.5 C 206.8 311.8 208.4 310.9 210.3 310.6 C 213.1 310.4 215.7 311.5 218.5 311.6 C 219.6 310.6 220.6 309.4 221.5 308.3 C 222.2 308.7 223.0 309.0 223.7 309.4 C 224.0 308.8 224.4 307.6 224.7 307.1 C 227.6 308.4 230.7 309.7 233.9 310.0 C 235.7 309.9 236.8 311.4 237.9 312.5 C 230.6 316.4 221.8 315.7 214.6 319.8 C 212.2 321.0 210.8 323.3 209.2 325.4 C 212.0 326.5 215.2 327.8 218.1 326.4 C 222.6 324.3 227.6 324.2 232.3 323.4 C 232.4 324.2 232.4 325.0 232.4 325.9 C 237.7 327.0 243.8 325.7 248.4 329.3 C 245.5 331.3 242.4 332.7 239.3 334.3 C 235.0 333.8 230.9 335.6 227.0 337.3 C 223.7 338.8 222.2 342.4 220.4 345.4 C 221.7 344.9 223.0 344.5 224.3 344.0 C 227.9 342.6 231.4 341.0 235.0 339.7 C 234.3 341.2 233.7 342.8 233.0 344.3 C 228.6 346.0 224.6 348.4 220.6 350.6 C 220.9 351.1 221.5 352.1 221.7 352.6 C 219.5 354.2 217.3 356.3 214.3 356.3 C 210.2 356.6 205.9 356.3 201.8 357.4 C 201.7 358.5 201.5 359.6 201.4 360.6 C 205.3 360.6 209.4 360.6 213.2 359.0 C 216.8 357.4 220.6 356.1 224.7 356.3 C 222.7 358.7 220.6 361.0 218.1 363.0 C 216.8 364.0 215.4 364.8 214.0 365.7 C 215.4 365.8 216.8 365.9 218.3 366.0 C 213.9 366.0 210.6 368.8 208.0 371.9 C 202.9 375.7 197.2 378.3 192.4 382.3 C 189.5 383.2 186.5 383.5 183.5 383.8 C 178.6 383.7 173.7 382.8 168.9 382.5 C 165.2 382.4 161.5 383.0 157.8 383.1 C 157.8 383.6 157.8 384.6 157.8 385.1 C 161.0 385.0 164.2 384.9 167.4 385.0 C 164.9 386.6 162.2 388.2 159.1 387.9 C 154.1 387.5 149.2 387.6 144.4 389.0 C 139.0 390.2 133.4 389.5 127.9 389.7 C 122.9 388.6 117.5 392.2 113.0 389.0 C 110.8 387.6 107.6 387.1 106.2 384.7 C 107.4 385.1 108.6 385.4 109.7 385.7 C 112.8 383.0 116.8 379.7 121.2 381.3 C 125.3 382.7 129.7 383.7 134.1 383.2 C 134.1 380.8 134.0 378.3 134.0 375.8 C 135.2 374.1 136.4 372.3 137.8 370.8 C 139.4 371.5 140.7 372.5 142.1 373.4 C 146.6 373.3 151.5 374.3 155.2 371.1 C 153.2 369.2 151.1 367.3 148.9 365.5 C 150.7 365.5 152.5 365.5 154.3 365.5 C 154.4 366.4 154.5 367.2 154.7 368.0 C 155.3 368.0 156.5 367.9 157.1 367.9 C 157.3 364.6 157.4 361.3 157.4 358.1 C 159.9 358.5 162.4 359.1 164.9 359.8 C 163.6 361.3 162.3 362.8 161.1 364.3 C 164.3 365.7 167.7 365.0 171.1 364.6 C 170.8 362.9 170.6 361.3 170.4 359.6 C 175.5 357.9 181.0 358.2 186.3 357.4 C 190.5 356.1 194.8 355.7 199.1 354.7 C 203.0 352.8 206.5 349.9 210.7 348.5 C 210.8 347.4 211.1 346.3 211.4 345.2 C 210.6 345.2 209.0 345.1 208.2 345.1 C 211.3 343.6 212.3 338.6 209.2 336.7 C 205.9 336.3 202.6 337.1 199.3 337.4 C 199.1 338.4 198.8 339.4 198.6 340.3 C 197.6 340.2 196.6 340.2 195.7 340.1 C 195.5 340.4 195.3 341.2 195.2 341.5 C 191.0 339.8 186.3 343.5 182.5 340.5 C 180.9 339.4 179.8 337.8 178.6 336.3 C 185.6 335.3 192.1 331.4 199.2 332.4 C 203.2 332.4 207.0 329.3 207.4 325.3 C 203.8 325.0 200.1 325.0 196.4 325.2 C 194.7 326.7 193.1 328.8 190.7 328.9 C 187.7 328.9 184.8 327.6 181.7 327.6 C 178.4 329.5 178.4 334.0 177.2 337.3 C 171.5 339.1 165.7 336.8 160.8 333.7 C 165.8 333.0 171.0 332.6 175.1 329.5 C 173.9 329.2 172.7 328.9 171.5 328.6 C 172.0 327.5 172.6 326.5 173.1 325.4 C 171.4 325.8 169.8 326.2 168.1 326.7 C 166.4 325.4 164.6 324.2 162.9 322.9 C 162.6 324.9 162.0 326.8 160.1 327.9 C 158.7 326.0 157.6 323.6 155.5 322.5 C 150.3 320.6 144.6 321.6 139.3 322.5 C 139.5 319.3 142.3 317.6 144.5 315.7 C 140.0 310.6 132.7 312.9 127.2 314.8 C 128.1 316.5 129.0 318.2 129.9 319.9 C 125.5 318.0 120.6 318.0 115.9 318.5 C 117.3 317.7 118.7 316.9 120.1 316.1 C 117.1 315.4 115.4 312.9 114.7 310.0 C 114.0 311.3 113.3 312.5 112.6 313.8 C 111.9 313.4 111.2 312.9 110.5 312.5 C 111.4 310.7 113.2 308.9 112.5 306.8 C 111.9 303.5 109.7 300.8 108.0 298.0 C 106.6 295.8 105.7 292.9 103.2 291.5 C 99.2 289.1 95.9 285.1 90.9 284.7 C 92.1 286.9 93.6 288.9 94.7 291.1 C 94.9 293.2 92.5 294.1 91.4 295.5 C 91.2 298.1 92.1 301.2 90.6 303.5 C 88.2 304.9 85.3 304.9 82.6 305.4 C 83.6 303.5 84.6 301.6 85.6 299.7 C 84.5 299.4 83.3 299.1 82.2 298.8 C 81.6 299.7 81.0 300.6 80.6 301.6 C 77.5 298.9 74.6 296.0 71.9 293.0 C 71.6 296.2 72.2 299.3 73.7 302.1 C 74.6 303.8 71.7 305.4 72.9 307.1 C 74.8 310.1 76.7 313.2 77.1 316.9 C 75.8 316.0 74.6 315.1 73.3 314.1 C 73.1 316.0 74.1 318.3 72.5 319.7 C 68.2 320.7 65.3 316.6 62.2 314.4 C 62.0 316.7 61.6 319.0 61.4 321.3 C 60.0 322.2 58.6 323.1 57.2 324.1 C 53.5 322.9 49.5 322.5 45.7 322.4 C 45.3 323.6 44.9 324.8 44.6 326.0 C 47.6 325.8 49.5 328.3 51.3 330.3 C 52.1 330.0 52.9 329.7 53.7 329.4 C 53.1 332.7 52.8 336.0 52.6 339.3 C 51.5 338.3 50.3 337.2 49.2 336.2 C 49.8 338.8 50.4 341.5 51.1 344.1 C 48.3 341.3 47.7 337.0 44.9 334.2 C 41.3 330.3 39.5 325.1 38.7 320.0 C 39.5 320.6 40.3 321.2 41.1 321.8 C 40.7 320.0 38.9 318.1 39.8 316.2 C 40.6 314.9 41.5 313.7 42.0 312.3 C 42.0 309.5 41.0 306.7 40.5 303.9 C 42.2 304.5 44.0 305.0 45.8 305.6 C 44.7 299.6 43.4 293.6 41.0 288.0 C 41.0 291.6 41.0 295.3 39.2 298.6 C 38.4 297.8 37.6 297.0 36.8 296.2 C 37.6 294.5 38.6 292.8 39.0 290.9 C 38.7 287.4 36.6 284.4 36.0 281.0 C 35.1 275.1 36.4 269.2 38.0 263.5 C 38.8 261.0 37.2 258.6 35.3 257.0 C 34.5 263.4 34.1 269.8 32.5 276.0 C 31.2 275.4 30.0 274.8 28.7 274.3 C 29.0 269.4 29.5 264.7 30.5 259.9 C 30.8 243.3 38.8 228.2 42.0 212.0 C 42.9 207.4 45.3 203.2 47.9 199.3 C 49.7 193.9 52.9 189.0 54.6 183.5 C 56.2 178.3 59.7 173.9 62.1 169.1 C 65.4 162.4 69.6 156.2 72.6 149.5 C 75.4 143.9 79.8 139.4 83.9 134.9 C 87.9 129.6 91.9 124.3 96.8 119.9 Z" />
<path fill="#6b738c" stroke="#6b738c" stroke-width="0.09375" d=" M 200.7 107.0 C 202.2 105.6 203.9 104.5 205.6 103.4 C 206.1 104.1 207.2 105.3 207.7 106.0 C 207.1 107.0 206.4 108.0 205.7 108.9 C 203.9 108.5 202.3 107.7 200.7 107.0 Z" />
<path fill="#15346d" stroke="#15346d" stroke-width="0.09375" d=" M 239.5 116.2 C 240.5 112.9 241.8 109.7 243.3 106.7 C 243.9 110.1 245.5 113.2 246.4 116.6 C 243.6 122.5 240.6 128.4 236.9 133.8 C 238.1 132.8 239.3 131.7 240.6 130.8 C 240.4 132.0 240.0 133.3 239.7 134.5 C 238.2 135.8 236.3 136.5 234.9 137.9 C 233.3 139.8 232.1 142.1 230.9 144.3 C 229.8 142.7 228.6 141.1 227.5 139.5 C 230.2 131.1 237.1 124.8 239.5 116.2 Z" />
<path fill="#6b738c" stroke="#6b738c" stroke-width="0.09375" d=" M 164.5 108.8 C 165.2 108.9 166.5 109.1 167.2 109.2 C 164.7 112.3 161.7 115.0 158.3 117.0 C 158.2 116.5 158.1 115.6 158.0 115.1 C 160.2 113.0 162.3 110.9 164.5 108.8 Z" />
<path fill="#6b738c" stroke="#6b738c" stroke-width="0.09375" d=" M 173.6 133.4 C 181.2 125.7 187.9 117.2 196.7 110.8 C 197.3 112.2 197.9 113.5 198.5 114.8 C 195.3 117.6 191.6 119.7 187.9 122.0 C 184.5 124.1 183.2 128.0 181.3 131.4 C 180.7 132.3 180.0 133.2 179.3 134.1 C 177.4 133.9 175.5 133.6 173.6 133.4 Z" />
<path fill="#babec7" stroke="#babec7" stroke-width="0.09375" d=" M 144.0 129.9 C 145.1 128.0 146.1 126.0 147.2 124.1 C 149.2 124.4 151.1 124.7 153.1 124.9 C 150.9 127.9 148.6 131.0 146.7 134.2 C 146.7 133.5 146.8 132.2 146.8 131.5 C 145.9 131.0 144.9 130.4 144.0 129.9 Z" />
<path fill="#010101" stroke="#010101" stroke-width="0.09375" d=" M 181.3 131.4 C 183.6 129.2 186.5 127.7 189.7 127.4 C 186.5 130.8 183.9 134.7 181.7 138.7 C 178.1 145.0 172.9 150.1 169.3 156.3 C 164.6 164.0 160.6 172.1 157.5 180.6 C 155.3 187.1 151.2 192.7 148.8 199.1 C 147.9 202.0 144.8 202.8 142.4 204.0 C 142.3 199.2 142.3 194.3 143.8 189.7 C 145.1 186.4 146.8 183.2 148.8 180.1 C 153.4 173.5 155.8 165.7 159.7 158.6 C 162.3 153.3 166.8 149.3 171.3 145.5 C 171.2 144.6 171.2 143.7 171.2 142.8 C 171.5 142.5 172.1 142.1 172.4 141.9 C 175.2 139.8 177.3 137.0 179.3 134.1 C 180.0 133.2 180.7 132.3 181.3 131.4 Z" />
<path fill="#15346d" stroke="#15346d" stroke-width="0.09375" d=" M 173.6 133.4 C 175.5 133.6 177.4 133.9 179.3 134.1 C 177.3 137.0 175.2 139.8 172.4 141.9 C 172.6 139.6 172.2 137.4 171.7 135.2 C 172.3 134.6 173.0 134.0 173.6 133.4 Z" />
<path fill="#6b738c" stroke="#6b738c" stroke-width="0.09375" d=" M 152.4 152.0 C 156.5 145.4 161.1 138.5 168.5 135.3 C 168.6 135.9 168.8 137.1 169.0 137.7 C 169.9 136.9 170.8 136.0 171.7 135.2 C 172.2 137.4 172.6 139.6 172.4 141.9 C 172.1 142.1 171.5 142.5 171.2 142.8 C 167.9 144.9 165.0 147.6 161.7 149.7 C 159.0 151.5 155.6 151.8 152.4 152.0 Z" />
<path fill="#babec7" stroke="#babec7" stroke-width="0.09375" d=" M 145.2 148.4 C 146.4 146.6 147.6 144.8 148.8 142.9 C 147.8 146.5 146.6 150.2 144.8 153.4 C 144.0 152.9 142.5 152.0 141.7 151.5 C 142.3 149.6 142.9 147.7 143.7 145.9 C 144.0 146.5 144.8 147.8 145.2 148.4 Z" />
<path fill="#010101" stroke="#010101" stroke-width="0.09375" d=" M 286.0 143.9 C 307.1 144.1 328.2 144.0 349.3 144.0 C 349.4 163.8 349.2 183.6 349.3 203.4 C 346.4 205.1 344.4 207.8 342.1 210.3 C 341.1 210.3 340.2 210.3 339.3 210.4 C 334.5 213.1 331.7 218.0 328.1 222.0 C 326.1 223.1 323.8 223.8 321.8 225.0 C 320.8 225.7 319.8 226.3 318.8 227.0 C 316.9 229.3 315.3 231.8 313.6 234.2 C 313.1 232.7 312.5 231.3 312.0 229.9 C 313.0 228.2 313.9 226.4 314.9 224.7 C 311.0 228.0 307.5 231.7 303.7 235.0 C 301.3 237.1 299.1 239.4 297.0 241.8 C 295.4 243.5 294.0 245.2 292.4 246.9 C 290.4 249.0 288.3 251.2 286.2 253.3 C 285.9 249.5 286.0 245.8 286.0 242.0 C 286.0 212.3 286.0 182.7 286.0 153.0 C 286.0 150.2 285.9 147.4 285.7 144.5 L 286.0 143.9 Z" />
<path fill="#babec7" stroke="#babec7" stroke-width="0.09375" d=" M 418.8 144.5 C 420.2 144.7 422.2 144.1 422.3 146.1 C 421.8 148.8 419.8 150.9 417.6 152.4 C 418.0 149.8 418.5 147.2 418.8 144.5 Z" />
<path fill="#babec7" stroke="#babec7" stroke-width="0.09375" d=" M 407.7 162.8 C 409.1 160.9 411.1 159.6 413.4 158.8 C 414.2 160.6 415.0 162.5 415.9 164.3 C 414.8 164.7 413.7 165.1 412.6 165.6 C 416.3 169.7 413.7 175.1 413.3 179.9 C 413.0 184.3 410.0 187.9 409.5 192.3 C 406.8 204.1 397.9 212.8 388.9 220.2 C 390.2 216.4 392.4 213.0 394.9 209.8 C 398.1 205.6 399.8 200.4 403.5 196.5 C 408.1 192.0 410.4 185.7 412.6 179.8 C 409.7 181.8 407.0 184.1 404.6 186.6 C 404.1 186.6 403.1 186.6 402.5 186.6 C 402.3 186.1 401.9 185.0 401.7 184.5 C 402.4 184.9 403.1 185.3 403.8 185.7 C 404.9 181.5 407.0 177.7 409.5 174.2 C 409.4 173.9 409.2 173.3 409.1 173.0 C 408.7 172.1 408.4 171.2 408.0 170.3 C 409.4 168.3 410.6 166.1 411.2 163.7 C 410.3 163.5 408.6 163.0 407.7 162.8 Z" />
<path fill="#6b738c" stroke="#6b738c" stroke-width="0.09375" d=" M 391.8 169.1 C 397.1 169.4 400.6 164.7 404.1 161.5 C 404.7 162.4 405.3 163.4 406.0 164.3 C 406.4 163.9 407.3 163.2 407.7 162.8 C 408.6 163.0 410.3 163.5 411.2 163.7 C 410.6 166.1 409.4 168.3 408.0 170.3 C 408.4 171.2 408.7 172.1 409.1 173.0 C 407.9 174.4 406.6 175.7 405.4 177.1 C 403.3 174.9 401.4 171.5 398.0 171.2 C 392.4 172.4 388.3 176.8 383.9 180.1 C 384.1 179.8 384.5 179.0 384.7 178.6 C 386.9 175.3 389.6 172.4 391.8 169.1 Z" />
<path fill="#babec7" stroke="#babec7" stroke-width="0.09375" d=" M 415.5 167.6 C 416.1 165.3 416.2 162.0 419.2 161.6 C 419.1 164.1 418.6 167.2 415.5 167.6 Z" />
<path fill="#15346d" stroke="#15346d" stroke-width="0.09375" d=" M 383.9 180.1 C 388.3 176.8 392.4 172.4 398.0 171.2 C 401.4 171.5 403.3 174.9 405.4 177.1 C 406.6 175.7 407.9 174.4 409.1 173.0 C 409.2 173.3 409.4 173.9 409.5 174.2 C 407.0 177.7 404.9 181.5 403.8 185.7 C 403.1 185.3 402.4 184.9 401.7 184.5 C 401.9 185.0 402.3 186.1 402.5 186.6 C 403.1 186.6 404.1 186.6 404.6 186.6 C 407.0 184.1 409.7 181.8 412.6 179.8 C 410.4 185.7 408.1 192.0 403.5 196.5 C 399.8 200.4 398.1 205.6 394.9 209.8 C 392.4 213.0 390.2 216.4 388.9 220.2 C 386.7 225.2 381.9 228.3 379.0 232.8 C 376.7 236.2 374.4 239.6 371.5 242.4 C 367.1 246.5 363.4 251.3 358.2 254.4 C 353.6 256.8 352.7 262.9 347.7 264.6 C 347.8 264.9 348.1 265.5 348.2 265.8 C 347.3 266.8 346.4 267.8 345.5 268.8 C 345.3 265.3 342.1 268.4 340.3 268.8 C 339.5 268.6 338.7 268.3 338.0 268.1 C 339.6 266.0 341.0 263.7 341.7 261.1 C 341.7 260.5 341.8 259.4 341.9 258.8 C 342.2 258.7 342.8 258.6 343.1 258.5 C 347.7 256.8 349.9 251.9 353.6 248.9 C 353.4 247.7 353.3 246.6 353.2 245.4 C 351.7 246.7 350.3 248.0 348.9 249.3 C 345.5 252.2 342.4 255.4 339.9 259.1 C 338.7 260.2 337.5 261.4 336.3 262.5 C 334.1 264.8 331.5 266.7 329.1 268.7 C 328.1 268.5 327.1 268.3 326.1 268.2 C 319.0 275.2 310.8 281.1 303.4 287.8 C 302.6 288.5 301.9 289.1 301.1 289.8 L 300.4 290.2 C 300.4 289.7 300.5 288.5 300.5 287.9 C 298.5 287.8 296.3 287.5 294.5 288.5 C 288.0 291.7 281.1 293.6 274.5 296.6 C 274.0 295.7 273.5 294.9 273.0 294.1 C 272.6 296.1 272.2 298.0 271.7 299.9 C 271.3 299.0 270.9 298.2 270.5 297.3 C 266.0 300.0 262.3 304.8 256.7 305.1 C 257.2 303.0 257.5 300.7 258.8 298.9 C 261.1 296.6 264.5 295.8 266.4 293.0 C 267.8 290.9 270.5 289.6 271.1 286.9 C 274.7 282.3 280.7 280.9 284.9 276.9 C 288.3 274.1 290.5 270.2 292.9 266.5 C 294.1 267.8 295.3 269.2 296.6 270.6 C 298.5 267.9 300.6 265.1 303.8 263.8 C 310.8 260.5 315.7 254.2 320.7 248.5 C 322.4 246.4 325.3 246.5 327.8 246.0 C 328.2 243.9 328.5 241.7 328.7 239.5 C 325.7 241.6 322.8 243.8 319.8 245.9 C 314.8 249.0 310.8 253.8 305.0 255.3 C 307.0 250.7 311.0 247.4 315.5 245.3 C 314.9 244.7 314.3 244.2 313.7 243.6 C 317.1 241.2 319.7 238.0 322.5 234.9 C 323.7 233.5 325.0 232.1 326.2 230.7 L 326.6 230.3 C 330.0 228.7 332.8 226.2 335.4 223.5 C 338.9 219.9 344.2 218.2 346.8 213.7 C 348.9 210.3 351.4 207.2 354.0 204.2 C 354.7 203.5 355.3 202.7 356.0 202.0 C 359.2 199.8 362.8 197.3 362.3 192.8 C 366.2 190.1 369.8 186.8 372.4 182.7 C 373.0 184.1 373.6 185.6 374.2 187.0 C 377.7 185.1 381.2 183.0 383.9 180.1 Z" />
<path fill="#172b5a" stroke="#172b5a" stroke-width="0.09375" d=" M 388.4 181.2 C 391.3 177.9 394.5 174.9 398.0 172.4 C 400.7 176.6 396.6 181.1 393.2 183.2 C 391.2 184.5 389.8 182.3 388.4 181.2 Z" />
<path fill="#172b5a" stroke="#172b5a" stroke-width="0.09375" d=" M 145.3 173.3 C 146.9 175.3 148.1 177.6 148.8 180.1 C 147.3 180.8 145.9 181.5 144.4 182.2 C 143.8 180.6 143.3 178.9 142.7 177.2 C 143.5 175.9 144.4 174.6 145.3 173.3 Z" />
<path fill="#babec7" stroke="#babec7" stroke-width="0.09375" d=" M 372.4 182.7 C 374.6 180.5 377.2 178.7 379.8 176.9 C 380.4 177.7 380.9 178.5 381.5 179.2 C 382.5 179.0 383.6 178.8 384.7 178.6 C 384.5 179.0 384.1 179.8 383.9 180.1 C 381.2 183.0 377.7 185.1 374.2 187.0 C 373.6 185.6 373.0 184.1 372.4 182.7 Z" />
<path fill="#010101" stroke="#010101" stroke-width="0.09375" d=" M 180.4 183.6 C 183.1 182.2 185.8 180.7 188.5 179.2 C 188.3 180.7 188.1 182.1 187.9 183.6 C 185.2 184.2 182.5 184.9 179.8 185.6 C 180.0 185.1 180.3 184.1 180.4 183.6 Z" />
<path fill="#172b5a" stroke="#172b5a" stroke-width="0.09375" d=" M 123.3 213.7 C 123.2 202.8 123.1 191.3 128.3 181.5 C 128.7 183.0 129.3 184.6 129.1 186.3 C 128.4 192.3 127.2 198.2 126.1 204.1 C 125.2 208.5 127.6 212.6 128.0 216.9 C 126.7 220.0 124.8 222.7 123.4 225.7 C 122.8 224.5 122.1 223.3 121.4 222.1 C 121.1 222.5 120.4 223.4 120.1 223.9 C 119.8 222.1 119.6 220.3 119.4 218.5 C 120.6 217.6 121.9 216.6 123.1 215.6 C 123.1 215.1 123.2 214.2 123.3 213.7 Z" />
<path fill="#6b738c" stroke="#6b738c" stroke-width="0.09375" d=" M 400.0 186.9 C 401.2 187.3 402.4 187.7 403.5 188.1 C 402.1 189.7 400.6 191.2 398.9 192.5 C 399.2 190.6 399.6 188.8 400.0 186.9 Z" />
<path fill="#6b738c" stroke="#6b738c" stroke-width="0.09375" d=" M 360.9 193.7 C 361.2 193.5 361.9 193.0 362.3 192.8 C 362.8 197.3 359.2 199.8 356.0 202.0 C 357.6 199.2 359.0 196.3 360.9 193.7 Z" />
<path fill="#babec7" stroke="#babec7" stroke-width="0.09375" d=" M 351.7 201.9 C 353.5 197.9 356.8 195.1 360.9 193.7 C 359.0 196.3 357.6 199.2 356.0 202.0 C 355.3 202.7 354.7 203.5 354.0 204.2 C 353.3 203.4 352.5 202.7 351.7 201.9 Z" />
<path fill="#babec7" stroke="#babec7" stroke-width="0.09375" d=" M 218.4 202.0 C 220.4 200.0 222.3 197.8 224.7 196.2 C 225.6 196.7 226.4 197.2 227.3 197.8 C 223.8 201.3 220.1 204.7 216.4 207.9 C 214.9 207.7 213.4 207.5 211.9 207.3 C 214.5 206.2 216.7 204.4 218.4 202.0 Z" />
<path fill="#172b5a" stroke="#172b5a" stroke-width="0.09375" d=" M 227.3 197.8 C 228.9 199.0 230.5 200.2 232.1 201.4 C 230.8 202.7 229.5 204.0 228.3 205.4 C 226.4 205.4 224.4 205.3 222.5 205.8 C 220.3 207.2 218.9 209.6 216.9 211.2 C 214.3 213.6 210.8 214.7 207.6 216.0 C 210.5 213.2 213.4 210.5 216.4 207.9 C 220.1 204.7 223.8 201.3 227.3 197.8 Z" />
<path fill="#6b738c" stroke="#6b738c" stroke-width="0.09375" d=" M 210.5 207.4 C 212.6 204.9 215.3 203.2 218.4 202.0 C 216.7 204.4 214.5 206.2 211.9 207.3 C 213.4 207.5 214.9 207.7 216.4 207.9 C 213.4 210.5 210.5 213.2 207.6 216.0 C 201.8 218.6 196.2 221.4 190.9 224.8 C 187.3 227.2 183.1 227.5 179.0 227.7 C 177.3 229.6 174.9 230.2 172.4 229.5 C 176.3 227.0 180.6 225.1 184.6 222.7 C 188.8 220.2 192.8 217.3 197.2 215.2 C 201.8 212.9 207.0 211.4 210.5 207.4 Z" />
<path fill="#6b738c" stroke="#6b738c" stroke-width="0.09375" d=" M 351.7 201.9 C 352.5 202.7 353.3 203.4 354.0 204.2 C 351.4 207.2 348.9 210.3 346.8 213.7 C 344.2 218.2 338.9 219.9 335.4 223.5 C 332.8 226.2 330.0 228.7 326.6 230.3 C 330.0 225.2 334.2 220.8 338.3 216.3 C 339.7 214.8 341.6 214.0 343.5 213.2 C 343.0 212.2 342.5 211.2 342.1 210.3 C 344.4 207.8 346.4 205.1 349.3 203.4 C 350.1 202.9 350.9 202.4 351.7 201.9 Z" />
<path fill="#babec7" stroke="#babec7" stroke-width="0.09375" d=" M 339.3 210.4 C 340.2 210.3 341.1 210.3 342.1 210.3 C 342.5 211.2 343.0 212.2 343.5 213.2 C 341.6 214.0 339.7 214.8 338.3 216.3 C 334.2 220.8 330.0 225.2 326.6 230.3 L 326.2 230.7 C 324.7 228.8 323.3 226.9 321.8 225.0 C 323.8 223.8 326.1 223.1 328.1 222.0 C 331.7 218.0 334.5 213.1 339.3 210.4 Z" />
<path fill="#babec7" stroke="#babec7" stroke-width="0.09375" d=" M 113.8 216.3 C 116.5 214.1 120.0 213.9 123.3 213.7 C 123.2 214.2 123.1 215.1 123.1 215.6 C 121.9 216.6 120.6 217.6 119.4 218.5 C 119.6 220.3 119.8 222.1 120.1 223.9 C 119.0 223.7 117.9 223.5 116.9 223.3 C 116.7 221.5 116.5 219.7 116.3 217.8 C 115.7 217.5 114.4 216.7 113.8 216.3 Z" />
<path fill="#172b5a" stroke="#172b5a" stroke-width="0.09375" d=" M 93.8 221.7 C 94.5 219.5 94.7 216.7 97.1 215.5 C 97.9 218.8 97.1 222.1 96.7 225.4 C 96.3 231.9 96.2 238.5 95.7 245.0 C 95.9 247.0 93.8 247.6 92.5 248.5 C 92.8 249.2 93.0 249.8 93.3 250.5 C 92.6 251.3 91.9 252.1 91.1 253.0 C 91.8 254.5 92.2 256.0 92.2 257.7 C 91.2 257.3 90.2 256.9 89.2 256.5 C 89.2 258.7 89.1 260.9 88.9 263.0 C 84.7 258.3 86.8 251.8 84.8 246.3 C 83.1 241.5 84.7 236.4 85.2 231.5 C 87.3 232.4 90.0 234.1 91.8 231.9 C 92.8 228.5 92.8 225.1 93.8 221.7 Z" />
<path fill="#172b5a" stroke="#172b5a" stroke-width="0.09375" d=" M 111.7 226.6 C 112.6 223.2 113.0 219.7 113.8 216.3 C 114.4 216.7 115.7 217.5 116.3 217.8 C 116.5 219.7 116.7 221.5 116.9 223.3 C 117.3 224.9 117.5 227.0 119.4 227.7 C 122.6 229.1 126.2 229.9 129.3 231.7 C 133.0 233.5 136.1 236.5 139.9 238.2 C 144.8 240.0 150.2 239.3 155.3 238.5 C 154.4 239.3 153.6 240.2 152.8 241.0 C 154.2 241.1 155.6 241.3 157.0 241.4 C 155.7 242.3 154.4 243.2 153.0 244.1 C 146.9 247.0 140.2 245.2 133.9 244.0 C 131.7 243.5 129.7 242.4 127.9 241.1 C 124.5 238.5 119.8 239.2 115.8 238.2 C 116.3 237.8 117.1 237.1 117.6 236.7 C 115.2 233.6 113.5 230.1 111.7 226.6 Z" />
<path fill="#6b738c" stroke="#6b738c" stroke-width="0.09375" d=" M 191.4 227.3 C 197.3 221.2 205.7 218.3 214.1 218.0 C 210.7 220.1 206.9 221.4 203.5 223.5 C 198.3 226.4 194.7 231.5 189.3 234.3 C 189.8 231.9 189.9 229.3 191.4 227.3 Z" />
<path fill="#babec7" stroke="#babec7" stroke-width="0.09375" d=" M 303.7 235.0 C 307.5 231.7 311.0 228.0 314.9 224.7 C 313.9 226.4 313.0 228.2 312.0 229.9 C 312.5 231.3 313.1 232.7 313.6 234.2 C 315.3 231.8 316.9 229.3 318.8 227.0 C 320.1 229.6 321.4 232.2 322.5 234.9 C 319.7 238.0 317.1 241.2 313.7 243.6 C 309.5 246.3 305.3 249.2 301.7 252.8 C 301.1 254.2 300.5 255.7 299.9 257.1 C 298.2 256.5 296.6 255.9 294.9 255.5 C 294.2 256.9 293.6 258.4 293.2 260.0 C 290.6 261.0 288.0 262.3 286.6 264.9 C 282.4 265.8 280.4 269.6 277.5 272.3 C 273.8 273.9 270.3 275.8 267.7 279.0 C 267.0 277.7 266.3 276.4 265.9 275.1 C 266.1 273.2 266.9 271.6 267.5 269.9 C 267.7 270.3 268.1 271.1 268.3 271.5 C 272.0 268.7 275.6 265.8 279.1 262.8 C 281.1 262.7 283.4 262.5 284.9 261.0 C 288.9 257.6 292.2 253.5 295.6 249.6 C 294.5 248.7 293.5 247.8 292.4 246.9 C 294.0 245.2 295.4 243.5 297.0 241.8 C 297.4 241.7 298.3 241.7 298.8 241.6 C 298.4 242.8 298.0 244.0 297.6 245.2 C 301.1 243.8 305.1 242.6 306.9 238.9 C 306.1 238.7 304.7 238.3 304.0 238.1 C 303.9 237.1 303.8 236.0 303.7 235.0 Z" />
<path fill="#6b738c" stroke="#6b738c" stroke-width="0.09375" d=" M 318.8 227.0 C 319.8 226.3 320.8 225.7 321.8 225.0 C 323.3 226.9 324.7 228.8 326.2 230.7 C 325.0 232.1 323.7 233.5 322.5 234.9 C 321.4 232.2 320.1 229.6 318.8 227.0 Z" />
<path fill="#babec7" stroke="#babec7" stroke-width="0.09375" d=" M 107.7 227.3 C 108.8 227.8 109.9 228.2 111.0 228.5 C 111.2 227.9 111.4 227.2 111.7 226.6 C 113.5 230.1 115.2 233.6 117.6 236.7 C 117.1 237.1 116.3 237.8 115.8 238.2 C 112.5 235.2 108.3 232.1 107.7 227.3 Z" />
<path fill="#6b738c" stroke="#6b738c" stroke-width="0.09375" d=" M 297.0 241.8 C 299.1 239.4 301.3 237.1 303.7 235.0 C 303.8 236.0 303.9 237.1 304.0 238.1 C 304.7 238.3 306.1 238.7 306.9 238.9 C 305.1 242.6 301.1 243.8 297.6 245.2 C 298.0 244.0 298.4 242.8 298.8 241.6 C 298.3 241.7 297.4 241.7 297.0 241.8 Z" />
<path fill="#172b5a" stroke="#172b5a" stroke-width="0.09375" d=" M 319.8 245.9 C 322.8 243.8 325.7 241.6 328.7 239.5 C 328.5 241.7 328.2 243.9 327.8 246.0 C 325.3 246.5 322.4 246.4 320.7 248.5 C 315.7 254.2 310.8 260.5 303.8 263.8 C 300.6 265.1 298.5 267.9 296.6 270.6 C 295.3 269.2 294.1 267.8 292.9 266.5 C 290.5 270.2 288.3 274.1 284.9 276.9 C 280.7 280.9 274.7 282.3 271.1 286.9 C 270.5 289.6 267.8 290.9 266.4 293.0 C 264.5 295.8 261.1 296.6 258.8 298.9 C 257.5 300.7 257.2 303.0 256.7 305.1 C 262.3 304.8 266.0 300.0 270.5 297.3 C 270.9 298.2 271.3 299.0 271.7 299.9 C 272.2 298.0 272.6 296.1 273.0 294.1 C 273.5 294.9 274.0 295.7 274.5 296.6 C 281.1 293.6 288.0 291.7 294.5 288.5 C 296.3 287.5 298.5 287.8 300.5 287.9 C 300.5 288.5 300.4 289.7 300.4 290.2 C 296.4 292.6 292.5 295.1 289.2 298.3 C 286.4 301.2 282.4 302.6 279.5 305.6 C 277.1 306.3 274.8 307.4 273.0 309.3 C 270.4 312.1 266.2 311.6 263.0 313.2 C 260.2 314.9 258.0 317.7 254.8 318.8 C 252.6 319.5 250.2 319.8 247.9 320.2 C 248.2 323.0 248.7 325.9 249.3 328.7 C 249.1 328.8 248.6 329.1 248.4 329.3 C 243.8 325.7 237.7 327.0 232.4 325.9 C 232.4 325.0 232.4 324.2 232.3 323.4 C 227.6 324.2 222.6 324.3 218.1 326.4 C 215.2 327.8 212.0 326.5 209.2 325.4 C 210.8 323.3 212.2 321.0 214.6 319.8 C 221.8 315.7 230.6 316.4 237.9 312.5 C 236.8 311.4 235.7 309.9 233.9 310.0 C 230.7 309.7 227.6 308.4 224.7 307.1 C 224.4 307.6 224.0 308.8 223.7 309.4 C 223.0 309.0 222.2 308.7 221.5 308.3 C 220.6 309.4 219.6 310.6 218.5 311.6 C 215.7 311.5 213.1 310.4 210.3 310.6 C 208.4 310.9 206.8 311.8 205.1 312.5 C 204.5 310.8 203.9 309.1 203.3 307.4 C 206.3 306.5 208.9 304.7 210.9 302.3 C 211.0 303.1 211.2 304.6 211.3 305.4 C 214.8 303.8 217.4 301.0 220.2 298.5 C 221.7 299.4 223.0 300.6 224.4 301.7 C 227.6 299.3 230.7 296.7 234.6 295.4 C 238.1 294.1 242.1 293.7 245.1 291.1 C 247.9 288.9 250.4 285.8 254.2 285.6 C 251.8 288.3 248.9 290.8 247.0 294.0 C 246.6 295.1 245.5 296.8 246.9 297.6 C 248.8 297.1 250.6 296.3 252.4 295.6 C 252.4 294.2 252.3 292.8 252.3 291.4 C 253.9 289.9 255.5 288.3 257.0 286.7 C 256.3 286.4 254.9 285.8 254.2 285.6 C 260.1 285.8 266.3 285.5 271.4 282.3 C 276.3 279.5 279.1 274.3 283.6 271.1 C 286.3 269.0 288.7 266.5 291.1 264.0 C 293.9 261.6 297.2 259.7 299.9 257.1 C 300.5 255.7 301.1 254.2 301.7 252.8 C 302.4 253.8 303.1 254.8 303.8 255.8 C 304.1 255.7 304.7 255.4 305.0 255.3 C 310.8 253.8 314.8 249.0 319.8 245.9 Z" />
<path fill="#6b738c" stroke="#6b738c" stroke-width="0.09375" d=" M 301.7 252.8 C 305.3 249.2 309.5 246.3 313.7 243.6 C 314.3 244.2 314.9 244.7 315.5 245.3 C 311.0 247.4 307.0 250.7 305.0 255.3 C 304.7 255.4 304.1 255.7 303.8 255.8 C 303.1 254.8 302.4 253.8 301.7 252.8 Z" />
<path fill="#ffffff" stroke="#ffffff" stroke-width="0.09375" d=" M 348.9 249.3 C 350.3 248.0 351.7 246.7 353.2 245.4 C 353.3 246.6 353.4 247.7 353.6 248.9 C 349.9 251.9 347.7 256.8 343.1 258.5 C 345.6 256.0 349.8 253.6 348.9 249.3 Z" />
<path fill="#6b738c" stroke="#6b738c" stroke-width="0.09375" d=" M 286.2 253.3 C 288.3 251.2 290.4 249.0 292.4 246.9 C 293.5 247.8 294.5 248.7 295.6 249.6 C 292.2 253.5 288.9 257.6 284.9 261.0 C 283.4 262.5 281.1 262.7 279.1 262.8 C 281.6 260.5 284.1 258.1 286.7 255.8 C 286.5 255.0 286.4 254.1 286.2 253.3 Z" />
<path fill="#010101" stroke="#010101" stroke-width="0.09375" d=" M 339.9 259.1 C 342.4 255.4 345.5 252.2 348.9 249.3 C 349.8 253.6 345.6 256.0 343.1 258.5 C 342.8 258.6 342.2 258.7 341.9 258.8 C 341.4 258.9 340.4 259.0 339.9 259.1 Z" />
<path fill="#6b738c" stroke="#6b738c" stroke-width="0.09375" d=" M 294.9 255.5 C 296.6 255.9 298.2 256.5 299.9 257.1 C 297.2 259.7 293.9 261.6 291.1 264.0 C 289.6 264.3 288.1 264.6 286.6 264.9 C 288.0 262.3 290.6 261.0 293.2 260.0 C 293.6 258.4 294.2 256.9 294.9 255.5 Z" />
<path fill="#6b738c" stroke="#6b738c" stroke-width="0.09375" d=" M 35.3 257.0 C 37.2 258.6 38.8 261.0 38.0 263.5 C 36.4 269.2 35.1 275.1 36.0 281.0 C 36.6 284.4 38.7 287.4 39.0 290.9 C 38.6 292.8 37.6 294.5 36.8 296.2 C 37.6 297.0 38.4 297.8 39.2 298.6 C 41.0 295.3 41.0 291.6 41.0 288.0 C 43.4 293.6 44.7 299.6 45.8 305.6 C 44.0 305.0 42.2 304.5 40.5 303.9 C 41.0 306.7 42.0 309.5 42.0 312.3 C 41.5 313.7 40.6 314.9 39.8 316.2 L 38.6 316.8 C 38.7 315.0 38.6 312.9 40.3 311.8 C 39.7 306.9 37.2 302.5 36.2 297.7 C 35.3 293.6 33.1 290.0 32.4 285.8 C 31.7 281.8 30.1 278.1 28.7 274.3 C 30.0 274.8 31.2 275.4 32.5 276.0 C 34.1 269.8 34.5 263.4 35.3 257.0 Z" />
<path fill="#172b5a" stroke="#172b5a" stroke-width="0.09375" d=" M 69.8 261.0 C 70.8 260.2 71.8 259.3 73.0 258.7 C 77.8 260.8 78.3 266.5 80.3 270.8 C 82.6 275.7 83.1 281.1 84.9 286.2 C 85.9 288.3 84.5 290.2 83.1 291.8 C 81.3 290.7 79.2 289.9 77.8 288.1 C 76.3 285.1 75.8 281.7 74.8 278.4 C 75.4 278.4 76.6 278.4 77.2 278.3 C 76.3 275.6 74.1 273.8 71.9 272.0 C 72.7 270.8 73.7 269.8 74.6 268.7 C 73.4 265.9 71.4 263.5 69.8 261.0 Z" />
<path fill="#6b738c" stroke="#6b738c" stroke-width="0.09375" d=" M 339.9 259.1 C 340.4 259.0 341.4 258.9 341.9 258.8 C 341.8 259.4 341.7 260.5 341.7 261.1 C 339.9 261.6 338.1 262.1 336.3 262.5 C 337.5 261.4 338.7 260.2 339.9 259.1 Z" />
<path fill="#172b5a" stroke="#172b5a" stroke-width="0.09375" d=" M 336.3 262.5 C 338.1 262.1 339.9 261.6 341.7 261.1 C 341.0 263.7 339.6 266.0 338.0 268.1 C 335.5 271.2 332.5 273.8 329.6 276.6 C 326.8 279.5 324.9 283.2 322.0 286.0 C 320.0 288.0 317.8 289.9 315.7 291.8 C 312.6 295.2 307.1 293.9 304.1 297.6 C 302.4 297.6 300.6 297.7 298.9 297.8 C 298.9 297.3 298.9 296.5 298.9 296.0 C 299.4 294.5 299.9 293.1 300.4 291.6 C 300.6 291.1 300.9 290.2 301.1 289.8 C 301.9 289.1 302.6 288.5 303.4 287.8 C 303.1 289.8 302.8 291.8 302.4 293.8 C 305.4 290.7 308.3 287.4 311.3 284.4 C 312.1 285.3 312.9 286.2 313.7 287.1 C 314.0 286.9 314.5 286.5 314.8 286.2 C 316.5 284.8 318.2 283.4 319.9 282.0 C 320.8 281.3 321.6 280.5 322.4 279.8 C 321.9 278.9 321.3 278.0 320.7 277.0 C 323.4 274.2 326.1 271.3 329.1 268.7 C 331.5 266.7 334.1 264.8 336.3 262.5 Z" />
<path fill="#172b5a" stroke="#172b5a" stroke-width="0.09375" d=" M 97.8 265.4 C 99.5 266.6 101.2 267.9 102.2 269.8 C 105.1 274.7 107.9 279.9 112.1 283.9 C 114.5 286.2 116.9 288.5 119.5 290.6 C 120.3 293.7 121.7 296.6 122.0 299.9 C 121.1 301.8 119.2 300.5 117.7 300.3 C 118.0 298.7 118.3 297.1 118.6 295.5 C 111.9 294.5 108.3 288.3 104.3 283.5 C 101.9 281.0 103.0 277.0 100.6 274.4 C 98.5 271.8 97.5 268.7 97.8 265.4 Z" />
<path fill="#6b738c" stroke="#6b738c" stroke-width="0.09375" d=" M 340.3 268.8 C 342.1 268.4 345.3 265.3 345.5 268.8 C 341.2 273.3 335.0 275.3 330.8 279.8 C 328.6 282.6 326.5 285.5 323.7 287.8 C 314.6 295.9 306.0 305.0 295.0 310.7 C 290.4 313.2 286.5 316.8 282.5 320.1 C 282.6 321.0 282.7 321.9 282.9 322.8 C 281.0 325.5 278.5 327.8 275.4 329.2 C 273.2 328.5 271.0 327.9 268.7 327.3 C 272.0 325.1 275.4 323.0 278.3 320.4 C 279.2 318.8 278.7 316.8 279.2 315.1 C 281.0 313.6 283.2 312.7 284.8 311.0 C 286.4 309.0 287.2 306.6 288.2 304.3 C 285.4 305.9 282.9 307.9 280.3 309.8 C 280.6 309.2 281.2 308.1 281.5 307.5 C 280.9 306.9 280.2 306.2 279.5 305.6 C 282.4 302.6 286.4 301.2 289.2 298.3 C 292.5 295.1 296.4 292.6 300.4 290.2 L 301.1 289.8 C 300.9 290.2 300.6 291.1 300.4 291.6 C 299.2 293.0 298.0 294.4 296.7 295.8 C 293.3 297.9 290.0 300.0 286.6 302.2 C 287.0 302.5 287.6 303.2 288.0 303.5 C 291.2 301.4 294.5 299.2 298.2 298.0 C 295.4 300.9 292.9 304.1 289.7 306.5 C 289.0 307.0 288.3 307.5 287.7 308.0 C 287.9 309.4 288.1 310.7 288.3 312.1 C 289.8 310.9 291.2 309.6 292.6 308.3 C 296.3 304.6 300.2 301.1 304.1 297.6 C 307.1 293.9 312.6 295.2 315.7 291.8 C 317.8 289.9 320.0 288.0 322.0 286.0 C 324.9 283.2 326.8 279.5 329.6 276.6 C 332.5 273.8 335.5 271.2 338.0 268.1 C 338.7 268.3 339.5 268.6 340.3 268.8 Z" />
<path fill="#6b738c" stroke="#6b738c" stroke-width="0.09375" d=" M 303.4 287.8 C 310.8 281.1 319.0 275.2 326.1 268.2 C 327.1 268.3 328.1 268.5 329.1 268.7 C 326.1 271.3 323.4 274.2 320.7 277.0 C 321.3 278.0 321.9 278.9 322.4 279.8 C 321.6 280.5 320.8 281.3 319.9 282.0 C 319.7 280.3 319.4 278.6 319.2 276.8 C 317.2 278.4 315.4 280.1 313.6 281.9 C 314.0 283.3 314.4 284.8 314.8 286.2 C 314.5 286.5 314.0 286.9 313.7 287.1 C 312.9 286.2 312.1 285.3 311.3 284.4 C 308.3 287.4 305.4 290.7 302.4 293.8 C 302.8 291.8 303.1 289.8 303.4 287.8 Z" />
<path fill="#babec7" stroke="#babec7" stroke-width="0.09375" d=" M 245.8 277.9 C 247.5 276.5 249.5 275.6 251.6 275.1 C 251.4 275.7 250.8 277.0 250.5 277.7 C 249.0 277.7 247.4 277.8 245.8 277.9 Z" />
<path fill="#6b738c" stroke="#6b738c" stroke-width="0.09375" d=" M 251.6 275.1 C 252.0 274.9 252.8 274.7 253.2 274.6 C 251.9 280.7 245.1 281.7 240.3 284.2 C 239.5 283.2 238.6 282.3 237.7 281.4 C 239.5 278.6 242.7 277.9 245.8 277.9 C 247.4 277.8 249.0 277.7 250.5 277.7 C 250.8 277.0 251.4 275.7 251.6 275.1 Z" />
<path fill="#babec7" stroke="#babec7" stroke-width="0.09375" d=" M 313.6 281.9 C 315.4 280.1 317.2 278.4 319.2 276.8 C 319.4 278.6 319.7 280.3 319.9 282.0 C 318.2 283.4 316.5 284.8 314.8 286.2 C 314.4 284.8 314.0 283.3 313.6 281.9 Z" />
<path fill="#babec7" stroke="#babec7" stroke-width="0.09375" d=" M 219.3 285.2 C 224.2 281.5 230.5 284.2 236.1 283.1 C 232.8 286.1 229.6 289.4 225.9 291.9 C 222.4 294.4 217.9 294.9 214.2 297.1 C 211.8 295.1 208.7 294.0 205.6 293.5 C 208.2 290.6 212.1 292.1 215.4 292.8 C 216.4 290.2 216.8 286.9 219.3 285.2 Z" />
<path fill="#172b5a" stroke="#172b5a" stroke-width="0.09375" d=" M 90.9 284.7 C 95.9 285.1 99.2 289.1 103.2 291.5 C 105.7 292.9 106.6 295.8 108.0 298.0 C 109.7 300.8 111.9 303.5 112.5 306.8 C 113.2 308.9 111.4 310.7 110.5 312.5 C 111.2 312.9 111.9 313.4 112.6 313.8 C 113.3 312.5 114.0 311.3 114.7 310.0 C 115.4 312.9 117.1 315.4 120.1 316.1 C 118.7 316.9 117.3 317.7 115.9 318.5 C 120.6 318.0 125.5 318.0 129.9 319.9 C 129.0 318.2 128.1 316.5 127.2 314.8 C 132.7 312.9 140.0 310.6 144.5 315.7 C 142.3 317.6 139.5 319.3 139.3 322.5 C 144.6 321.6 150.3 320.6 155.5 322.5 C 157.6 323.6 158.7 326.0 160.1 327.9 C 162.0 326.8 162.6 324.9 162.9 322.9 C 164.6 324.2 166.4 325.4 168.1 326.7 C 169.8 326.2 171.4 325.8 173.1 325.4 C 172.6 326.5 172.0 327.5 171.5 328.6 C 172.7 328.9 173.9 329.2 175.1 329.5 C 171.0 332.6 165.8 333.0 160.8 333.7 C 165.7 336.8 171.5 339.1 177.2 337.3 C 178.4 334.0 178.4 329.5 181.7 327.6 C 184.8 327.6 187.7 328.9 190.7 328.9 C 193.1 328.8 194.7 326.7 196.4 325.2 C 200.1 325.0 203.8 325.0 207.4 325.3 C 207.0 329.3 203.2 332.4 199.2 332.4 C 192.1 331.4 185.6 335.3 178.6 336.3 C 179.8 337.8 180.9 339.4 182.5 340.5 C 186.3 343.5 191.0 339.8 195.2 341.5 C 195.3 341.2 195.5 340.4 195.7 340.1 C 196.6 340.2 197.6 340.2 198.6 340.3 C 198.8 339.4 199.1 338.4 199.3 337.4 C 202.6 337.1 205.9 336.3 209.2 336.7 C 212.3 338.6 211.3 343.6 208.2 345.1 C 209.0 345.1 210.6 345.2 211.4 345.2 C 211.1 346.3 210.8 347.4 210.7 348.5 C 206.5 349.9 203.0 352.8 199.1 354.7 C 194.8 355.7 190.5 356.1 186.3 357.4 C 181.0 358.2 175.5 357.9 170.4 359.6 C 170.6 361.3 170.8 362.9 171.1 364.6 C 167.7 365.0 164.3 365.7 161.1 364.3 C 162.3 362.8 163.6 361.3 164.9 359.8 C 162.4 359.1 159.9 358.5 157.4 358.1 C 157.4 361.3 157.3 364.6 157.1 367.9 C 156.5 367.9 155.3 368.0 154.7 368.0 C 154.5 367.2 154.4 366.4 154.3 365.5 C 152.5 365.5 150.7 365.5 148.9 365.5 C 151.1 367.3 153.2 369.2 155.2 371.1 C 151.5 374.3 146.6 373.3 142.1 373.4 C 140.7 372.5 139.4 371.5 137.8 370.8 C 136.4 372.3 135.2 374.1 134.0 375.8 C 134.0 378.3 134.1 380.8 134.1 383.2 C 129.7 383.7 125.3 382.7 121.2 381.3 C 116.8 379.7 112.8 383.0 109.7 385.7 C 108.6 385.4 107.4 385.1 106.2 384.7 C 103.3 383.3 100.4 381.5 97.0 381.6 C 93.9 381.6 90.9 380.8 87.9 380.1 C 91.1 380.7 94.2 380.7 97.4 380.4 C 94.5 379.0 91.4 378.0 88.2 377.6 C 84.2 377.0 80.6 374.9 77.2 372.7 C 80.0 371.6 82.9 370.7 85.8 369.9 C 83.9 368.4 82.1 366.8 80.2 365.2 C 79.6 366.0 79.1 366.8 78.5 367.6 C 76.2 365.2 74.0 362.6 71.7 360.3 C 67.8 356.9 63.0 354.2 57.7 353.9 C 55.4 350.7 53.1 347.5 51.1 344.1 C 50.4 341.5 49.8 338.8 49.2 336.2 C 50.3 337.2 51.5 338.3 52.6 339.3 C 52.8 336.0 53.1 332.7 53.7 329.4 C 52.9 329.7 52.1 330.0 51.3 330.3 C 49.5 328.3 47.6 325.8 44.6 326.0 C 44.9 324.8 45.3 323.6 45.7 322.4 C 49.5 322.5 53.5 322.9 57.2 324.1 C 58.6 323.1 60.0 322.2 61.4 321.3 C 61.6 319.0 62.0 316.7 62.2 314.4 C 65.3 316.6 68.2 320.7 72.5 319.7 C 74.1 318.3 73.1 316.0 73.3 314.1 C 74.6 315.1 75.8 316.0 77.1 316.9 C 76.7 313.2 74.8 310.1 72.9 307.1 C 71.7 305.4 74.6 303.8 73.7 302.1 C 72.2 299.3 71.6 296.2 71.9 293.0 C 74.6 296.0 77.5 298.9 80.6 301.6 C 81.0 300.6 81.6 299.7 82.2 298.8 C 83.3 299.1 84.5 299.4 85.6 299.7 C 84.6 301.6 83.6 303.5 82.6 305.4 C 85.3 304.9 88.2 304.9 90.6 303.5 C 92.1 301.2 91.2 298.1 91.4 295.5 C 92.5 294.1 94.9 293.2 94.7 291.1 C 93.6 288.9 92.1 286.9 90.9 284.7 Z" />
<path fill="#6b738c" stroke="#6b738c" stroke-width="0.09375" d=" M 121.0 285.7 C 125.9 289.4 129.5 294.2 133.0 299.1 C 127.5 296.4 121.4 292.5 121.0 285.7 Z" />
<path fill="#010101" stroke="#010101" stroke-width="0.09375" d=" M 254.2 285.6 C 254.9 285.8 256.3 286.4 257.0 286.7 C 255.5 288.3 253.9 289.9 252.3 291.4 C 252.3 292.8 252.4 294.2 252.4 295.6 C 250.6 296.3 248.8 297.1 246.9 297.6 C 245.5 296.8 246.6 295.1 247.0 294.0 C 248.9 290.8 251.8 288.3 254.2 285.6 Z" />
<path fill="#010101" stroke="#010101" stroke-width="0.09375" d=" M 296.7 295.8 C 298.0 294.4 299.2 293.0 300.4 291.6 C 299.9 293.1 299.4 294.5 298.9 296.0 C 298.4 296.0 297.2 295.9 296.7 295.8 Z" />
<path fill="#6b738c" stroke="#6b738c" stroke-width="0.09375" d=" M 203.8 295.8 C 204.4 295.1 205.0 294.3 205.6 293.5 C 208.7 294.0 211.8 295.1 214.2 297.1 C 211.6 298.8 208.6 299.6 205.6 299.8 C 205.4 300.6 205.2 301.4 205.1 302.3 C 203.4 302.5 201.7 302.8 200.0 303.1 C 201.5 300.8 202.6 298.3 203.8 295.8 Z" />
<path fill="#babec7" stroke="#babec7" stroke-width="0.09375" d=" M 199.1 299.2 C 200.7 298.2 202.3 297.0 203.8 295.8 C 202.6 298.3 201.5 300.8 200.0 303.1 L 199.0 303.2 C 199.1 301.9 199.1 300.6 199.1 299.2 Z" />
<path fill="#babec7" stroke="#babec7" stroke-width="0.09375" d=" M 286.6 302.2 C 290.0 300.0 293.3 297.9 296.7 295.8 C 297.2 295.9 298.4 296.0 298.9 296.0 C 298.9 296.5 298.9 297.3 298.9 297.8 L 298.2 298.0 C 294.5 299.2 291.2 301.4 288.0 303.5 C 287.6 303.2 287.0 302.5 286.6 302.2 Z" />
<path fill="#010101" stroke="#010101" stroke-width="0.09375" d=" M 298.9 297.8 C 300.6 297.7 302.4 297.6 304.1 297.6 C 300.2 301.1 296.3 304.6 292.6 308.3 C 291.6 307.7 290.7 307.1 289.7 306.5 C 292.9 304.1 295.4 300.9 298.2 298.0 L 298.9 297.8 Z" />
<path fill="#6b738c" stroke="#6b738c" stroke-width="0.09375" d=" M 167.2 302.5 C 171.5 301.4 175.5 303.0 179.0 305.3 C 176.1 305.2 173.2 304.3 170.4 303.5 C 170.8 305.6 171.2 307.6 171.6 309.7 C 167.5 309.8 163.3 310.1 159.5 308.3 C 156.6 306.8 153.4 307.8 150.3 308.0 C 155.0 305.0 160.9 306.2 166.2 305.9 C 166.5 304.8 166.9 303.6 167.2 302.5 Z" />
<path fill="#15346d" stroke="#15346d" stroke-width="0.09375" d=" M 280.3 309.8 C 282.9 307.9 285.4 305.9 288.2 304.3 C 287.2 306.6 286.4 309.0 284.8 311.0 C 283.2 312.7 281.0 313.6 279.2 315.1 C 278.7 316.8 279.2 318.8 278.3 320.4 C 275.4 323.0 272.0 325.1 268.7 327.3 C 262.4 330.1 257.1 334.6 252.4 339.6 C 251.3 337.4 251.7 334.9 252.4 332.7 C 258.5 329.9 264.6 327.0 269.4 322.2 C 267.4 322.8 265.4 323.5 263.4 324.1 C 264.0 321.3 265.5 318.9 267.2 316.6 C 264.0 317.2 260.5 317.7 258.0 320.0 C 256.4 321.3 256.6 323.5 256.3 325.4 C 253.9 326.3 251.6 327.4 249.3 328.7 C 248.7 325.9 248.2 323.0 247.9 320.2 C 250.2 319.8 252.6 319.5 254.8 318.8 C 258.0 317.7 260.2 314.9 263.0 313.2 C 266.2 311.6 270.4 312.1 273.0 309.3 C 274.8 307.4 277.1 306.3 279.5 305.6 C 280.2 306.2 280.9 306.9 281.5 307.5 C 281.2 308.1 280.6 309.2 280.3 309.8 Z" />
<path fill="#babec7" stroke="#babec7" stroke-width="0.09375" d=" M 287.7 308.0 C 288.3 307.5 289.0 307.0 289.7 306.5 C 290.7 307.1 291.6 307.7 292.6 308.3 C 291.2 309.6 289.8 310.9 288.3 312.1 C 288.1 310.7 287.9 309.4 287.7 308.0 Z" />
<path fill="#babec7" stroke="#babec7" stroke-width="0.09375" d=" M 282.5 320.1 C 286.5 316.8 290.4 313.2 295.0 310.7 C 292.6 315.4 289.5 319.8 286.5 324.2 C 285.3 323.7 284.1 323.2 282.9 322.8 C 282.7 321.9 282.6 321.0 282.5 320.1 Z" />
<path fill="#6b738c" stroke="#6b738c" stroke-width="0.09375" d=" M 258.0 320.0 C 260.5 317.7 264.0 317.2 267.2 316.6 C 265.5 318.9 264.0 321.3 263.4 324.1 C 262.6 323.2 261.8 322.3 261.0 321.5 C 259.4 322.7 257.8 324.0 256.3 325.4 C 256.6 323.5 256.4 321.3 258.0 320.0 Z" />
<path fill="#ffffff" stroke="#ffffff" stroke-width="0.09375" d=" M 256.3 325.4 C 257.8 324.0 259.4 322.7 261.0 321.5 C 261.8 322.3 262.6 323.2 263.4 324.1 C 265.4 323.5 267.4 322.8 269.4 322.2 C 264.6 327.0 258.5 329.9 252.4 332.7 C 249.8 334.2 248.1 336.8 246.6 339.3 C 245.4 341.1 244.3 343.2 242.2 344.1 C 240.0 344.9 237.7 345.0 235.4 345.4 C 238.1 341.3 239.4 335.7 244.2 333.5 C 248.6 331.3 253.1 329.2 256.3 325.4 Z" />
<path fill="#babec7" stroke="#babec7" stroke-width="0.09375" d=" M 249.3 328.7 C 251.6 327.4 253.9 326.3 256.3 325.4 C 253.1 329.2 248.6 331.3 244.2 333.5 C 239.4 335.7 238.1 341.3 235.4 345.4 C 237.7 345.0 240.0 344.9 242.2 344.1 C 244.3 343.2 245.4 341.1 246.6 339.3 C 248.6 340.4 250.7 341.3 252.9 342.1 C 252.8 341.5 252.5 340.2 252.4 339.6 C 257.1 334.6 262.4 330.1 268.7 327.3 C 271.0 327.9 273.2 328.5 275.4 329.2 L 276.3 329.5 C 272.4 330.4 268.3 329.6 264.4 330.4 C 261.2 331.5 262.5 335.6 260.9 337.9 C 259.1 340.2 257.3 342.4 255.2 344.4 C 250.5 347.5 244.9 348.5 240.0 350.9 C 239.4 352.0 238.9 353.1 238.5 354.2 C 236.3 351.1 234.1 348.0 233.0 344.3 C 233.7 342.8 234.3 341.2 235.0 339.7 C 231.4 341.0 227.9 342.6 224.3 344.0 C 227.8 338.9 234.5 337.8 239.3 334.3 C 242.4 332.7 245.5 331.3 248.4 329.3 C 248.6 329.1 249.1 328.8 249.3 328.7 Z" />
<path fill="#6b738c" stroke="#6b738c" stroke-width="0.09375" d=" M 227.0 337.3 C 230.9 335.6 235.0 333.8 239.3 334.3 C 234.5 337.8 227.8 338.9 224.3 344.0 C 223.0 344.5 221.7 344.9 220.4 345.4 C 222.2 342.4 223.7 338.8 227.0 337.3 Z" />
<path fill="#6b738c" stroke="#6b738c" stroke-width="0.09375" d=" M 246.6 339.3 C 248.1 336.8 249.8 334.2 252.4 332.7 C 251.7 334.9 251.3 337.4 252.4 339.6 C 252.5 340.2 252.8 341.5 252.9 342.1 C 250.7 341.3 248.6 340.4 246.6 339.3 Z" />
<path fill="#6b738c" stroke="#6b738c" stroke-width="0.09375" d=" M 220.6 350.6 C 224.6 348.4 228.6 346.0 233.0 344.3 C 234.1 348.0 236.3 351.1 238.5 354.2 L 239.0 355.0 C 233.5 357.9 228.6 362.0 223.2 365.3 C 224.1 363.7 225.1 362.2 226.0 360.7 C 223.4 361.5 220.7 362.2 218.1 363.0 C 220.6 361.0 222.7 358.7 224.7 356.3 C 220.6 356.1 216.8 357.4 213.2 359.0 C 209.4 360.6 205.3 360.6 201.4 360.6 C 201.5 359.6 201.7 358.5 201.8 357.4 C 205.9 356.3 210.2 356.6 214.3 356.3 C 217.3 356.3 219.5 354.2 221.7 352.6 C 221.5 352.1 220.9 351.1 220.6 350.6 Z" />
<path fill="#15346d" stroke="#15346d" stroke-width="0.09375" d=" M 57.7 353.9 C 63.0 354.2 67.8 356.9 71.7 360.3 C 71.0 360.8 69.5 361.9 68.8 362.4 C 70.3 362.9 71.2 364.3 72.7 364.8 C 72.5 365.0 72.0 365.4 71.8 365.7 C 69.2 364.7 66.6 363.9 64.1 362.9 C 61.3 360.4 59.4 357.1 57.7 353.9 Z" />
<path fill="#6b738c" stroke="#6b738c" stroke-width="0.09375" d=" M 71.7 360.3 C 74.0 362.6 76.2 365.2 78.5 367.6 C 79.1 366.8 79.6 366.0 80.2 365.2 C 82.1 366.8 83.9 368.4 85.8 369.9 C 82.9 370.7 80.0 371.6 77.2 372.7 C 80.6 374.9 84.2 377.0 88.2 377.6 C 91.4 378.0 94.5 379.0 97.4 380.4 C 94.2 380.7 91.1 380.7 87.9 380.1 C 84.9 379.2 81.8 378.3 78.8 377.0 C 76.3 375.3 74.5 372.8 72.1 370.8 C 69.4 368.2 65.7 366.5 64.1 362.9 C 66.6 363.9 69.2 364.7 71.8 365.7 C 72.0 365.4 72.5 365.0 72.7 364.8 C 71.2 364.3 70.3 362.9 68.8 362.4 C 69.5 361.9 71.0 360.8 71.7 360.3 Z" />
<path fill="#010101" stroke="#010101" stroke-width="0.09375" d=" M 704.8 365.7 C 706.2 363.8 707.6 366.2 708.8 367.0 C 705.9 370.2 701.3 370.5 697.5 372.1 C 698.0 368.6 702.4 367.9 704.8 365.7 Z" />
<path fill="#babec7" stroke="#babec7" stroke-width="0.09375" d=" M 218.3 366.0 C 219.1 366.0 220.8 365.9 221.7 365.8 C 221.2 367.0 220.5 367.9 219.3 368.3 C 215.6 369.8 211.9 371.3 208.0 371.9 C 210.6 368.8 213.9 366.0 218.3 366.0 Z" />
<path fill="#010101" stroke="#010101" stroke-width="0.09375" d=" M 297.1 367.0 C 303.2 364.9 309.7 366.2 315.9 367.2 C 315.9 370.2 315.9 373.2 316.8 376.0 C 316.2 376.0 315.0 376.0 314.3 376.0 C 313.4 371.3 309.2 369.0 304.9 368.0 C 299.7 368.6 294.5 372.0 293.4 377.4 C 291.0 382.9 292.2 389.1 294.8 394.2 C 297.7 399.9 306.0 402.1 311.1 398.1 C 313.2 396.6 314.2 394.1 315.4 392.0 C 316.0 392.0 317.1 392.0 317.7 392.0 C 317.1 395.0 317.1 398.0 315.8 400.8 C 312.2 401.8 308.5 402.2 304.9 402.8 C 299.4 402.3 293.5 401.6 289.3 397.8 C 284.4 393.9 283.0 387.0 284.0 381.0 C 284.7 374.1 290.6 368.8 297.1 367.0 Z" />
<path fill="#010101" stroke="#010101" stroke-width="0.09375" d=" M 544.4 366.5 C 551.3 365.7 558.2 365.9 565.0 366.2 C 569.7 366.4 574.7 367.6 578.0 371.1 C 585.2 377.8 584.4 390.6 577.0 396.9 C 572.7 401.0 566.5 401.1 561.0 402.0 C 555.2 401.6 549.5 401.6 543.7 401.4 C 544.2 399.4 546.1 398.9 547.9 398.7 C 549.1 394.9 548.7 390.9 548.8 387.0 C 548.6 382.1 548.8 377.1 548.7 372.2 C 548.7 369.4 546.1 368.2 544.4 366.5 Z" />
<path fill="#ffffff" stroke="#ffffff" stroke-width="0.09375" d=" M 557.1 368.1 C 562.6 367.8 569.6 369.3 572.0 374.9 C 574.8 380.0 574.5 386.2 572.7 391.6 C 571.2 394.9 568.5 398.1 564.9 398.9 C 562.4 399.3 559.9 398.9 557.6 398.5 C 555.8 393.2 556.4 387.5 556.3 382.0 C 556.5 377.4 555.9 372.6 557.1 368.1 Z" />
<path fill="#babec7" stroke="#babec7" stroke-width="0.09375" d=" M 184.8 372.5 C 190.1 372.2 194.8 368.5 200.2 369.7 C 199.1 370.4 198.0 371.1 197.0 371.9 C 198.0 372.1 199.0 372.3 200.0 372.5 C 195.9 372.8 191.7 375.2 187.6 374.3 C 186.7 373.7 185.8 373.1 184.8 372.5 Z" />
<path fill="#6b738c" stroke="#6b738c" stroke-width="0.09375" d=" M 171.8 374.8 C 176.0 373.3 180.4 372.8 184.8 372.5 C 185.8 373.1 186.7 373.7 187.6 374.3 C 186.3 375.3 185.1 376.3 183.8 377.3 C 183.0 377.1 182.3 376.8 181.5 376.6 C 178.5 379.4 174.7 378.5 171.3 377.4 C 171.4 376.5 171.6 375.6 171.8 374.8 Z" />
<path fill="#010101" stroke="#010101" stroke-width="0.09375" d=" M 602.3 372.5 C 606.6 372.3 611.1 373.8 614.2 376.8 C 617.8 381.3 619.4 387.5 616.9 392.9 C 613.6 402.7 599.1 405.2 592.2 397.8 C 584.6 391.3 587.5 377.3 596.7 373.8 C 598.5 373.0 600.4 372.8 602.3 372.5 Z" />
<path fill="#010101" stroke="#010101" stroke-width="0.09375" d=" M 743.7 374.7 C 747.3 371.5 752.6 371.3 756.9 373.1 C 757.4 375.2 757.9 377.3 758.2 379.4 C 754.9 378.8 754.6 373.7 750.9 374.0 C 747.7 373.1 744.4 377.5 746.8 380.2 C 749.3 384.4 755.4 385.0 757.4 389.6 C 759.9 394.0 757.3 400.5 752.1 401.1 C 748.4 402.9 744.7 401.1 741.2 399.9 C 740.8 397.4 740.2 395.1 739.8 392.7 C 743.4 393.2 743.1 398.5 746.7 399.3 C 748.7 400.7 750.8 399.4 752.7 398.7 C 753.1 396.8 754.2 394.8 753.1 393.0 C 751.0 388.6 745.1 388.4 743.0 384.1 C 741.1 381.2 741.7 377.4 743.7 374.7 Z" />
<path fill="#010101" stroke="#010101" stroke-width="0.09375" d=" M 366.6 373.8 C 369.9 373.9 373.2 373.9 376.5 373.8 C 375.2 375.1 372.7 375.8 373.1 378.0 C 372.8 386.5 373.3 395.0 372.8 403.4 C 370.7 402.6 369.7 400.4 368.2 398.8 C 362.6 393.0 357.8 386.6 352.2 380.9 C 351.9 387.1 351.9 393.3 352.1 399.5 C 353.6 400.3 355.1 401.1 356.6 402.0 C 352.9 402.1 349.2 402.1 345.5 401.9 C 346.6 401.1 347.8 400.4 348.9 399.7 C 349.6 391.9 349.2 384.2 349.0 376.4 C 347.5 375.7 345.9 374.9 344.4 374.0 C 347.4 373.9 350.3 374.0 353.2 373.8 C 358.5 380.7 364.3 387.1 370.4 393.1 C 370.7 387.5 370.8 381.9 369.9 376.3 C 368.8 375.4 367.7 374.6 366.6 373.8 Z" />
<path fill="#010101" stroke="#010101" stroke-width="0.09375" d=" M 380.3 373.1 C 384.1 374.4 388.1 374.0 392.0 373.9 C 397.0 373.7 402.3 374.9 407.0 372.5 C 406.2 375.1 405.9 377.8 405.6 380.5 C 404.6 379.1 403.9 377.5 402.8 376.1 C 400.3 375.7 397.8 375.9 395.2 376.0 C 395.5 383.9 394.4 392.0 395.8 399.8 C 397.4 400.0 399.2 399.9 399.6 401.8 C 394.9 402.1 390.2 402.1 385.5 401.8 C 386.2 399.8 388.4 400.2 390.0 399.8 C 390.0 391.9 390.0 383.9 390.0 376.0 C 387.7 376.0 385.4 375.9 383.1 376.1 C 381.5 377.3 380.8 379.4 378.9 380.4 C 379.1 377.9 379.9 375.5 380.3 373.1 Z" />
<path fill="#010101" stroke="#010101" stroke-width="0.09375" d=" M 408.9 374.4 C 413.4 373.7 417.9 372.4 422.4 373.6 C 426.1 373.8 430.9 375.2 431.4 379.6 C 432.6 383.5 429.3 386.4 426.6 388.7 C 429.5 393.7 432.2 399.2 437.6 402.0 C 434.7 401.8 431.5 402.8 429.1 400.9 C 423.9 398.3 424.3 390.2 418.2 388.8 C 417.9 392.4 418.0 396.0 418.0 399.6 C 419.5 400.2 421.0 401.0 422.4 401.8 C 417.8 402.1 413.1 402.0 408.5 402.0 C 409.9 401.1 411.4 400.2 412.9 399.5 C 413.1 391.7 412.9 384.0 413.0 376.2 C 411.6 375.6 410.2 375.0 408.9 374.4 Z" />
<path fill="#010101" stroke="#010101" stroke-width="0.09375" d=" M 474.6 374.0 C 480.1 372.9 485.8 372.5 491.4 373.7 C 495.6 374.1 499.9 376.1 502.0 380.0 C 506.1 386.0 504.3 395.2 498.0 399.0 C 490.8 403.1 482.2 402.1 474.3 401.7 C 475.7 400.2 477.7 399.1 477.6 396.8 C 477.7 389.8 477.9 382.8 477.3 375.8 C 476.4 375.2 475.5 374.6 474.6 374.0 Z" />
<path fill="#010101" stroke="#010101" stroke-width="0.09375" d=" M 508.7 373.5 C 515.1 373.1 521.5 373.2 527.9 373.1 C 528.3 375.3 529.4 377.6 528.3 379.8 C 526.4 375.3 521.5 374.4 517.1 375.1 C 516.9 378.7 517.0 382.3 517.1 386.0 C 519.0 386.0 520.9 386.0 522.9 385.9 C 523.9 384.5 524.9 383.1 526.0 381.7 C 525.9 385.3 526.1 388.9 525.9 392.6 C 525.0 391.1 524.2 389.6 523.5 388.0 C 521.3 388.0 519.2 388.0 517.0 388.0 C 517.0 391.7 517.0 395.4 517.1 399.1 C 520.6 400.4 524.3 400.1 527.8 398.9 C 528.7 397.4 529.7 395.9 531.0 394.6 C 531.3 397.0 530.6 399.4 529.6 401.7 C 522.3 402.0 515.0 402.2 507.6 401.9 C 507.6 399.8 509.5 400.0 511.1 399.8 C 512.7 393.3 511.4 386.6 511.8 380.0 C 512.1 377.3 510.6 375.1 508.7 373.5 Z" />
<path fill="#010101" stroke="#010101" stroke-width="0.09375" d=" M 620.6 373.0 C 623.3 373.0 626.1 372.9 628.8 373.2 C 631.4 375.2 632.8 378.4 635.2 380.7 C 639.0 384.3 641.8 388.8 645.9 392.2 C 646.2 387.1 646.0 382.0 646.0 377.0 C 646.2 374.4 643.1 374.1 641.5 373.0 C 645.1 373.0 648.8 373.0 652.4 373.0 C 651.1 374.2 648.7 374.8 649.0 377.0 C 648.8 385.5 649.3 394.0 648.8 402.5 C 643.8 399.8 641.1 394.6 637.3 390.7 C 634.4 387.1 631.4 383.6 627.9 380.6 C 627.8 386.7 627.7 392.9 628.1 399.0 C 629.5 399.6 631.0 400.1 632.4 400.8 C 628.9 402.1 625.1 400.4 621.4 401.6 C 622.3 400.3 623.7 399.6 625.0 398.7 C 625.0 391.2 625.0 383.7 625.0 376.2 C 623.5 375.2 622.1 374.1 620.6 373.0 Z" />
<path fill="#010101" stroke="#010101" stroke-width="0.09375" d=" M 654.5 373.0 C 657.3 372.9 660.1 373.0 662.9 372.9 C 668.2 379.7 673.7 386.2 679.8 392.2 C 680.1 386.8 680.0 381.5 680.0 376.1 C 678.6 375.0 677.1 374.0 675.6 373.0 C 679.2 372.9 682.8 372.9 686.4 373.0 C 685.3 373.7 684.2 374.4 683.1 375.2 C 681.8 384.0 682.6 392.9 682.5 401.8 C 682.0 401.7 681.1 401.7 680.7 401.6 C 676.7 397.1 672.8 392.6 668.8 388.2 C 666.6 385.2 664.2 382.4 661.3 380.0 C 661.4 386.2 660.4 392.6 662.3 398.6 C 663.2 399.9 664.9 400.2 666.2 401.1 C 662.4 401.2 658.7 401.1 654.9 401.1 C 656.5 399.9 659.3 399.4 659.0 397.0 C 659.0 390.0 659.1 383.1 659.0 376.2 C 657.5 375.1 656.0 374.1 654.5 373.0 Z" />
<path fill="#010101" stroke="#010101" stroke-width="0.09375" d=" M 689.4 373.0 C 695.9 373.0 702.4 372.4 708.9 373.2 C 710.6 374.6 709.7 377.3 710.1 379.3 C 707.8 379.4 707.8 377.0 707.2 375.4 C 704.2 374.9 701.1 375.0 698.0 375.0 C 698.0 378.3 698.0 381.6 698.1 385.0 C 700.2 385.0 702.4 385.2 704.6 384.8 C 705.4 383.8 706.2 382.7 707.0 381.6 C 707.1 384.9 707.2 388.2 707.0 391.5 C 706.1 390.2 705.2 389.0 704.3 387.7 C 702.3 387.7 700.2 387.8 698.2 387.7 C 697.9 391.4 697.8 395.0 698.3 398.7 C 701.5 399.1 704.7 399.0 708.0 398.9 C 709.4 397.4 710.7 395.8 712.3 394.5 C 712.2 396.7 711.8 398.8 711.0 400.9 C 703.5 401.1 696.1 401.0 688.6 401.0 C 689.9 400.2 691.4 399.5 692.8 398.7 C 693.2 391.1 692.8 383.5 693.1 375.8 C 691.8 374.9 690.6 374.0 689.4 373.0 Z" />
<path fill="#010101" stroke="#010101" stroke-width="0.09375" d=" M 714.6 373.0 C 721.4 372.9 728.2 373.0 735.0 372.9 C 735.0 375.1 735.0 377.3 735.0 379.4 C 733.8 378.0 732.8 376.5 731.8 375.0 C 728.9 374.9 726.1 375.0 723.2 375.1 C 723.1 378.4 723.1 381.7 723.1 385.0 C 726.1 384.7 730.6 386.4 731.5 382.3 C 731.9 382.1 732.6 381.7 732.9 381.6 C 732.4 384.8 732.6 388.1 733.0 391.3 C 731.0 391.4 730.9 389.6 730.6 388.0 C 728.3 387.7 725.1 386.4 723.3 388.3 C 722.9 391.8 722.8 395.5 724.2 398.9 C 727.1 399.0 730.0 399.2 732.9 398.9 C 735.2 398.2 735.5 394.8 738.1 394.5 C 737.7 396.7 737.1 398.8 736.6 400.9 C 728.9 401.0 721.2 401.1 713.5 400.9 C 714.9 400.1 716.4 399.4 717.9 398.7 C 718.1 390.9 717.9 383.1 718.0 375.2 C 716.8 374.5 715.7 373.8 714.6 373.0 Z" />
<path fill="#010101" stroke="#010101" stroke-width="0.09375" d=" M 320.6 374.0 C 327.4 374.1 334.3 373.9 341.1 374.1 C 341.1 376.2 341.1 378.3 340.9 380.5 C 339.7 379.1 338.7 377.6 337.8 376.0 C 334.8 376.0 331.9 376.0 329.0 376.0 C 329.0 379.3 329.0 382.6 329.1 386.0 C 331.3 386.0 333.6 386.0 335.9 386.0 C 336.7 384.7 337.2 382.8 339.0 382.6 C 338.2 385.8 338.1 389.1 339.0 392.3 C 336.9 392.4 336.9 390.6 336.7 389.1 C 334.3 387.9 331.7 387.9 329.2 388.2 C 329.1 392.1 328.5 396.2 330.0 399.9 C 332.9 400.0 335.9 400.2 338.8 399.9 C 340.9 398.8 341.8 396.4 344.0 395.5 C 343.5 397.6 343.0 399.6 342.5 401.7 C 334.8 402.3 327.1 402.1 319.4 401.8 C 320.9 400.9 322.4 400.2 324.0 399.7 C 324.0 391.9 324.0 384.1 324.0 376.3 C 322.8 375.5 321.7 374.8 320.6 374.0 Z" />
<path fill="#010101" stroke="#010101" stroke-width="0.09375" d=" M 437.5 374.1 C 444.3 373.5 451.1 374.1 457.9 373.6 C 458.0 375.9 458.4 378.1 458.4 380.4 C 457.0 379.3 456.3 377.6 455.6 376.1 C 452.8 375.4 450.0 375.1 447.1 375.2 C 446.9 378.8 447.0 382.4 447.0 386.0 C 449.2 386.0 451.3 386.0 453.5 385.9 C 454.0 384.5 454.3 383.0 455.9 382.4 C 456.0 385.7 456.0 389.0 455.9 392.3 C 453.4 392.4 454.0 389.8 453.6 388.1 C 451.4 388.0 449.2 388.0 447.1 388.0 C 447.0 391.6 446.8 395.2 447.1 398.7 C 449.0 400.9 452.3 399.8 454.9 399.9 C 458.0 399.5 458.9 396.3 461.0 394.5 C 461.3 397.1 460.4 399.4 459.5 401.8 C 453.7 402.2 447.8 401.9 442.0 402.0 C 440.4 402.1 438.9 401.8 437.4 401.2 C 438.3 400.8 440.1 400.0 441.0 399.6 C 441.0 391.5 441.0 383.5 441.0 375.4 C 439.8 375.0 438.7 374.6 437.5 374.1 Z" />
<path fill="#ffffff" stroke="#ffffff" stroke-width="0.09375" d=" M 601.4 374.3 C 603.3 373.7 605.5 374.8 607.2 375.8 C 611.9 379.9 612.8 386.8 611.6 392.6 C 611.0 396.6 607.4 400.7 603.0 400.1 C 598.9 400.3 596.0 396.8 594.9 393.2 C 593.2 387.8 593.4 381.4 596.8 376.7 C 598.1 375.5 599.8 375.0 601.4 374.3 Z" />
<path fill="#ffffff" stroke="#ffffff" stroke-width="0.09375" d=" M 418.4 375.1 C 420.7 375.6 423.8 375.6 424.9 378.0 C 426.5 380.6 425.8 383.9 424.2 386.2 C 422.5 387.3 420.3 387.4 418.4 387.6 C 418.2 383.4 418.2 379.3 418.4 375.1 Z" />
<path fill="#ffffff" stroke="#ffffff" stroke-width="0.09375" d=" M 483.1 376.2 C 486.0 373.6 490.8 375.3 493.8 377.2 C 498.8 380.6 498.5 387.4 497.6 392.6 C 496.2 398.7 488.6 401.8 483.2 399.0 C 482.9 391.4 483.0 383.8 483.1 376.2 Z" />
<path fill="#6b738c" stroke="#6b738c" stroke-width="0.09375" d=" M 157.8 383.1 C 161.5 383.0 165.2 382.4 168.9 382.5 C 173.7 382.8 178.6 383.7 183.5 383.8 C 181.6 385.6 178.9 386.0 176.4 386.5 C 173.6 391.2 167.5 389.3 163.0 389.7 C 155.7 390.3 148.4 390.8 141.0 390.6 C 136.7 390.3 131.9 391.9 127.9 389.7 C 133.4 389.5 139.0 390.2 144.4 389.0 C 149.2 387.6 154.1 387.5 159.1 387.9 C 162.2 388.2 164.9 386.6 167.4 385.0 C 164.2 384.9 161.0 385.0 157.8 385.1 C 157.8 384.6 157.8 383.6 157.8 383.1 Z" />
<path fill="#010101" stroke="#010101" stroke-width="0.09375" d=" M 482.4 422.4 C 487.6 418.5 494.7 418.8 500.8 420.1 C 501.2 422.8 501.9 425.5 502.2 428.2 C 498.7 428.9 498.4 425.3 496.7 423.3 C 495.4 422.1 493.5 421.8 491.9 421.0 C 489.7 422.3 486.0 423.6 487.1 426.9 C 488.6 432.5 495.6 432.9 499.3 436.7 C 503.2 439.8 504.5 446.3 501.2 450.3 C 499.3 453.4 495.8 455.0 492.3 455.4 C 488.2 456.7 484.0 454.9 480.0 453.9 C 478.9 450.8 478.4 447.2 479.8 444.1 C 482.3 447.5 484.1 452.7 489.1 453.0 C 491.4 453.6 493.3 452.3 495.0 450.8 C 494.9 448.3 495.6 445.4 493.7 443.3 C 490.9 440.3 486.5 439.3 483.7 436.3 C 479.4 433.1 479.3 426.5 482.4 422.4 Z" />
<path fill="#010101" stroke="#010101" stroke-width="0.09375" d=" M 529.0 426.9 C 530.6 427.0 531.8 425.7 533.1 425.1 C 532.9 427.8 532.4 430.6 531.9 433.4 C 531.0 432.0 530.2 430.5 529.5 429.1 C 526.9 429.0 524.4 429.0 521.9 428.9 C 522.2 436.9 521.8 444.9 522.1 452.9 C 523.6 453.6 525.1 454.2 526.6 454.9 C 521.6 455.1 516.5 455.0 511.5 455.0 C 513.0 453.9 515.4 453.7 516.3 452.0 C 516.7 444.3 516.1 436.7 516.4 429.0 C 514.0 429.0 511.6 429.0 509.3 429.0 C 507.9 430.6 507.0 432.7 504.9 433.5 C 505.5 431.0 506.1 428.5 506.8 425.9 C 508.5 426.5 510.2 427.1 512.0 427.0 C 517.6 426.8 523.3 427.0 529.0 426.9 Z" />
<path fill="#010101" stroke="#010101" stroke-width="0.09375" d=" M 733.5 431.5 C 736.8 426.8 742.7 425.8 747.9 425.2 C 750.6 425.6 753.2 426.1 756.0 426.1 C 756.6 428.8 757.2 431.6 756.9 434.4 C 754.3 433.2 754.3 429.5 751.6 428.4 C 747.9 426.0 743.2 427.5 739.9 429.8 C 735.0 435.9 735.0 445.7 740.9 451.2 C 743.6 453.6 747.5 453.0 750.9 452.9 C 751.0 450.4 751.0 447.9 751.0 445.3 C 749.3 445.1 747.7 444.5 746.5 443.2 C 750.7 442.8 754.9 442.9 759.1 443.0 C 755.9 445.8 756.9 450.2 757.6 453.9 C 751.6 454.7 745.1 456.3 739.3 453.8 C 730.3 451.1 727.8 438.4 733.5 431.5 Z" />
<path fill="#010101" stroke="#010101" stroke-width="0.09375" d=" M 99.0 427.6 C 101.2 427.7 103.2 426.8 105.2 426.1 C 104.7 428.8 104.1 431.5 103.7 434.3 C 102.9 433.1 102.2 431.8 101.4 430.6 C 99.2 429.2 96.6 428.9 94.0 429.1 C 93.5 437.3 94.1 445.5 94.0 453.8 C 95.6 454.4 97.1 455.0 98.5 455.8 C 93.5 456.1 88.5 456.2 83.4 455.7 C 84.8 454.7 86.4 454.2 88.0 453.7 C 88.9 445.5 88.1 437.2 88.1 429.0 C 86.2 429.1 84.3 429.0 82.6 429.6 C 80.0 430.2 79.0 433.0 76.9 434.4 C 77.3 431.9 77.9 429.5 78.3 427.1 C 85.2 428.1 92.1 427.3 99.0 427.6 Z" />
<path fill="#010101" stroke="#010101" stroke-width="0.09375" d=" M 303.4 426.7 C 309.3 426.0 315.7 429.3 317.8 435.1 C 319.3 437.8 319.1 441.0 319.0 444.0 C 318.3 449.1 314.2 453.0 309.8 455.4 C 313.7 459.8 319.0 463.7 325.2 462.8 C 318.3 466.6 310.3 462.9 304.8 458.2 C 301.9 454.9 296.6 455.7 293.7 452.3 C 290.2 449.4 288.7 444.5 289.0 440.1 C 289.6 433.0 296.0 426.2 303.4 426.7 Z" />
<path fill="#010101" stroke="#010101" stroke-width="0.09375" d=" M 383.7 427.6 C 387.1 425.5 391.1 426.5 394.9 427.2 C 395.3 429.2 395.9 431.3 396.2 433.4 C 393.3 433.0 393.1 429.3 390.4 428.5 C 388.7 427.4 386.9 428.9 385.2 429.2 C 384.7 430.9 383.2 432.8 384.7 434.3 C 386.2 437.9 390.7 438.1 393.3 440.7 C 396.1 443.1 397.0 447.2 395.8 450.7 C 393.5 456.9 384.7 457.2 379.7 454.2 C 378.6 452.0 377.6 448.9 379.2 446.5 C 381.1 449.5 382.6 454.5 387.0 454.0 C 390.4 454.7 393.3 450.6 391.4 447.7 C 389.9 443.5 384.9 442.9 382.2 439.8 C 378.7 436.5 379.1 429.8 383.7 427.6 Z" />
<path fill="#010101" stroke="#010101" stroke-width="0.09375" d=" M 534.5 427.2 C 540.5 426.2 546.7 425.7 552.6 427.3 C 555.2 429.0 557.8 431.6 557.0 435.0 C 557.3 438.2 553.2 439.3 552.5 442.0 C 555.1 446.4 557.0 452.0 562.0 454.2 C 566.3 446.9 568.3 438.5 571.7 430.7 C 571.8 428.1 574.1 426.9 576.0 425.7 C 578.9 434.0 581.5 442.4 584.4 450.6 C 585.0 452.7 586.9 453.7 588.4 455.0 C 584.4 455.0 580.4 455.1 576.5 455.0 C 577.1 454.6 578.5 453.8 579.2 453.4 C 579.1 450.4 578.0 447.6 576.9 444.9 C 574.2 445.1 571.0 443.8 568.8 445.7 C 567.9 448.1 567.3 450.5 566.6 452.9 C 567.6 453.6 568.6 454.3 569.6 455.0 C 564.8 454.7 560.1 455.5 555.4 454.7 C 551.3 451.9 549.3 447.1 546.7 443.1 C 546.0 442.9 544.5 442.5 543.8 442.4 C 543.7 445.8 543.7 449.3 544.0 452.7 C 545.1 453.4 546.3 454.2 547.4 455.0 C 543.1 455.0 538.8 455.0 534.5 454.9 C 535.6 454.2 536.8 453.6 537.9 452.9 C 538.1 445.0 538.0 437.0 538.0 429.1 C 536.8 428.5 535.7 427.9 534.5 427.2 Z" />
<path fill="#010101" stroke="#010101" stroke-width="0.09375" d=" M 593.7 427.7 C 597.1 425.0 601.7 426.0 605.6 426.4 C 606.5 428.5 607.1 430.8 607.0 433.2 C 604.7 433.2 604.5 430.6 603.7 429.1 C 601.6 428.2 599.4 427.9 597.2 427.9 C 596.4 429.7 594.0 431.5 595.3 433.5 C 597.9 437.8 603.6 438.5 606.2 442.7 C 608.6 447.1 606.8 453.3 601.8 454.8 C 598.0 455.4 593.8 455.6 590.3 453.7 C 589.7 451.4 589.0 449.1 588.8 446.7 C 592.4 447.2 592.6 452.0 595.9 453.2 C 599.1 455.4 602.3 451.9 603.1 449.0 C 601.7 443.9 596.2 442.6 593.1 438.9 C 589.7 436.2 590.3 430.2 593.7 427.7 Z" />
<path fill="#010101" stroke="#010101" stroke-width="0.09375" d=" M 610.6 427.1 C 616.5 425.6 622.8 425.6 628.7 427.2 C 631.8 429.0 632.5 432.3 632.0 435.6 C 630.7 436.8 629.5 437.9 628.2 439.0 C 630.2 440.2 632.3 441.4 633.7 443.4 C 634.5 446.5 634.3 450.4 631.7 452.7 C 625.4 456.6 617.7 454.5 610.7 454.9 C 611.8 454.0 612.9 453.1 614.1 452.1 C 613.9 444.5 614.1 436.8 614.0 429.2 C 612.9 428.5 611.7 427.8 610.6 427.1 Z" />
<path fill="#010101" stroke="#010101" stroke-width="0.09375" d=" M 648.3 426.3 C 653.1 425.5 659.1 425.4 662.8 429.2 C 669.4 434.5 669.7 445.7 663.3 451.3 C 659.1 455.8 652.2 455.7 646.7 454.3 C 636.8 451.3 634.8 436.7 642.1 430.1 C 643.8 428.4 645.9 426.9 648.3 426.3 Z" />
<path fill="#010101" stroke="#010101" stroke-width="0.09375" d=" M 671.1 426.0 C 674.8 426.0 678.6 426.0 682.3 426.1 C 680.9 427.5 678.3 428.5 679.0 430.9 C 679.4 437.1 677.8 443.7 680.4 449.6 C 682.5 453.6 688.8 454.3 691.8 450.8 C 694.8 448.0 693.9 443.7 694.0 440.0 C 693.9 436.5 694.3 432.9 693.7 429.4 C 692.8 428.2 691.8 427.1 690.9 426.0 C 694.0 426.0 697.1 426.0 700.2 426.1 C 699.0 427.4 696.8 428.1 697.0 430.1 C 696.2 436.9 698.1 444.4 694.7 450.8 C 691.7 455.7 685.4 455.5 680.3 454.7 C 677.0 453.5 674.5 450.4 674.1 446.9 C 673.7 441.3 674.3 435.7 673.8 430.1 C 673.3 428.5 672.0 427.4 671.1 426.0 Z" />
<path fill="#010101" stroke="#010101" stroke-width="0.09375" d=" M 702.4 426.2 C 707.7 426.0 713.2 425.5 718.5 426.5 C 722.2 427.1 724.2 430.7 725.1 434.0 C 723.9 436.7 722.7 439.4 719.7 440.5 C 721.7 446.2 725.3 451.6 730.5 455.0 C 727.7 454.9 724.6 455.6 722.2 453.8 C 718.2 450.9 716.4 446.1 713.8 442.1 C 713.1 442.1 711.8 442.1 711.1 442.0 C 711.0 445.3 711.0 448.6 711.0 451.9 C 712.1 452.9 713.2 453.8 714.2 454.9 C 710.2 454.9 706.2 454.8 702.2 454.9 C 703.5 453.3 706.0 452.3 705.9 449.9 C 706.0 443.6 705.9 437.3 705.9 431.0 C 706.2 428.6 703.4 428.0 702.4 426.2 Z" />
<path fill="#010101" stroke="#010101" stroke-width="0.09375" d=" M 39.5 430.5 C 40.2 428.7 41.9 427.6 43.5 426.6 C 46.1 434.9 48.8 443.2 51.6 451.4 C 52.3 453.7 54.7 454.6 56.4 456.0 C 52.2 456.0 47.9 456.0 43.7 456.0 C 44.7 455.2 46.3 455.0 46.9 453.8 C 46.1 451.0 45.1 448.3 44.2 445.5 C 41.7 445.5 39.1 445.6 36.6 445.7 C 35.5 448.3 34.8 451.1 33.9 453.9 C 35.1 454.6 36.3 455.2 37.5 456.0 C 33.9 456.0 30.3 456.0 26.6 456.0 C 28.0 455.2 29.4 454.6 30.6 453.8 C 33.8 446.1 36.5 438.2 39.5 430.5 Z" />
<path fill="#010101" stroke="#010101" stroke-width="0.09375" d=" M 60.9 428.9 C 64.7 426.6 69.7 426.8 73.9 428.0 C 74.0 430.2 74.0 432.4 73.9 434.6 C 72.2 433.0 71.4 430.8 69.6 429.3 C 67.6 428.9 64.5 428.2 63.5 430.6 C 62.3 432.0 62.9 434.0 63.4 435.5 C 66.0 438.8 70.8 439.4 73.1 442.9 C 74.2 445.2 75.7 447.9 74.5 450.4 C 73.8 454.9 68.9 456.3 65.0 456.9 C 62.2 456.3 59.3 455.8 57.0 454.0 C 57.0 451.8 57.0 449.6 57.1 447.5 C 59.5 449.6 60.5 453.2 63.7 454.4 C 65.4 455.3 67.2 454.1 68.8 453.9 C 69.4 452.3 70.3 450.8 70.1 449.1 C 68.5 444.2 62.6 443.2 59.7 439.2 C 56.8 436.3 57.6 431.1 60.9 428.9 Z" />
<path fill="#010101" stroke="#010101" stroke-width="0.09375" d=" M 106.3 428.1 C 111.5 426.6 117.1 426.5 122.4 427.7 C 126.4 428.3 130.0 432.5 128.8 436.7 C 128.0 439.3 125.3 440.6 124.1 442.9 C 127.1 447.6 129.4 453.1 134.5 456.0 C 132.0 455.8 129.2 456.6 126.9 455.1 C 122.4 452.3 121.0 446.8 117.8 442.9 C 117.1 443.0 115.9 443.1 115.2 443.2 C 115.3 446.4 114.9 449.5 115.4 452.6 C 116.3 454.1 118.0 454.9 119.3 456.0 C 115.1 456.0 110.9 456.0 106.6 456.0 C 107.8 454.7 110.3 454.1 110.0 452.0 C 110.0 444.5 110.0 437.0 109.9 429.5 C 108.7 429.1 107.5 428.6 106.3 428.1 Z" />
<path fill="#010101" stroke="#010101" stroke-width="0.09375" d=" M 145.4 427.4 C 150.1 426.8 155.6 426.3 159.4 429.6 C 167.0 435.0 167.0 447.9 159.6 453.5 C 154.6 456.9 147.8 457.0 142.3 454.7 C 138.4 452.0 135.4 447.8 135.0 442.9 C 134.6 436.2 138.7 429.2 145.4 427.4 Z" />
<path fill="#010101" stroke="#010101" stroke-width="0.09375" d=" M 167.6 427.1 C 170.2 427.0 172.9 427.0 175.6 427.0 C 178.9 432.9 184.3 437.3 188.4 442.6 C 189.7 444.1 191.2 445.5 192.7 446.9 C 193.0 441.0 193.5 435.0 191.9 429.3 C 190.5 429.0 188.9 428.9 188.6 427.2 C 191.9 426.9 195.2 426.9 198.5 427.1 C 197.2 428.7 195.5 430.1 195.2 432.3 C 194.7 440.6 195.6 448.9 194.8 457.2 C 187.3 450.1 181.3 441.7 174.3 434.3 C 173.9 439.8 173.9 445.4 174.1 450.9 C 174.0 453.5 176.8 454.4 178.4 455.9 C 175.1 456.0 171.8 456.1 168.4 455.9 C 171.3 453.4 172.2 449.7 171.9 446.0 C 171.5 440.6 172.8 434.8 170.7 429.6 C 169.3 429.2 167.8 428.8 167.6 427.1 Z" />
<path fill="#010101" stroke="#010101" stroke-width="0.09375" d=" M 212.3 427.2 C 217.0 426.6 222.4 426.4 226.2 429.7 C 234.3 436.2 232.8 452.2 222.2 455.3 C 216.3 457.1 208.9 456.3 204.7 451.3 C 198.3 443.5 201.9 429.3 212.3 427.2 Z" />
<path fill="#010101" stroke="#010101" stroke-width="0.09375" d=" M 234.7 427.1 C 237.7 427.0 240.7 427.0 243.7 427.0 C 245.4 434.2 249.4 440.5 252.5 447.2 C 256.3 440.8 259.5 433.9 262.3 427.0 C 265.1 427.0 267.8 427.0 270.6 427.1 C 270.3 429.0 268.5 429.0 267.0 429.3 C 267.1 437.1 266.8 444.9 267.2 452.7 C 268.1 454.0 270.1 454.3 270.4 456.1 C 266.5 455.2 262.6 455.2 258.7 456.2 C 258.6 454.1 260.4 453.9 262.0 453.7 C 262.1 447.4 262.0 441.1 261.8 434.8 C 258.1 441.7 254.6 448.7 251.8 455.9 C 251.4 456.0 250.7 456.0 250.3 456.0 C 247.5 449.0 244.9 441.9 241.2 435.4 C 241.0 441.1 239.4 446.8 240.5 452.6 C 241.3 454.0 243.0 454.5 244.2 455.5 C 241.0 455.9 237.7 455.4 234.5 455.9 C 235.7 454.2 237.5 453.0 237.9 450.9 C 238.3 445.4 237.5 439.9 238.7 434.6 C 239.2 432.8 238.6 431.0 238.1 429.3 C 236.5 429.0 234.6 429.2 234.7 427.1 Z" />
<path fill="#010101" stroke="#010101" stroke-width="0.09375" d=" M 273.5 427.1 C 277.8 426.9 282.1 427.0 286.4 427.0 C 284.8 428.5 281.8 429.3 282.1 432.0 C 282.0 438.3 282.1 444.6 282.1 451.0 C 281.7 453.5 285.0 453.9 285.4 456.1 C 281.5 455.1 277.5 455.1 273.7 456.2 C 273.7 454.2 275.4 453.9 277.0 453.6 C 277.0 445.8 277.1 438.0 276.9 430.2 C 276.2 428.8 274.6 428.2 273.5 427.1 Z" />
<path fill="#010101" stroke="#010101" stroke-width="0.09375" d=" M 321.5 427.0 C 325.9 427.1 330.2 427.0 334.5 427.1 C 333.4 427.9 332.2 428.6 331.0 429.4 C 330.1 434.5 330.9 439.8 330.8 445.0 C 330.5 449.0 333.1 453.2 337.1 454.0 C 340.2 454.4 343.0 452.1 344.7 449.6 C 346.6 443.0 346.3 436.0 344.9 429.3 C 343.7 428.6 342.6 427.9 341.6 427.1 C 345.2 426.9 348.8 427.0 352.4 427.0 C 351.1 428.1 349.5 429.0 348.3 430.3 C 346.8 437.8 350.2 446.5 345.2 453.2 C 340.5 457.1 333.3 456.9 328.2 453.7 C 323.6 446.5 325.8 437.5 324.8 429.5 C 323.7 428.6 322.6 427.9 321.5 427.0 Z" />
<path fill="#010101" stroke="#010101" stroke-width="0.09375" d=" M 353.7 427.3 C 360.5 426.9 367.2 427.0 374.0 427.0 C 374.0 429.2 374.0 431.3 373.9 433.5 C 372.0 432.8 372.0 430.5 370.6 429.3 C 367.8 428.6 364.9 429.1 362.1 429.1 C 362.0 432.5 362.0 435.9 362.1 439.2 C 364.3 439.2 366.6 439.8 368.7 439.1 C 369.8 438.0 370.3 436.3 371.7 435.6 C 371.1 438.9 370.8 442.2 372.1 445.4 C 370.3 445.1 369.8 443.3 368.7 442.0 C 366.5 441.7 364.3 442.0 362.1 442.0 C 362.1 445.5 361.5 449.1 362.6 452.4 C 365.1 454.1 368.3 454.2 371.2 453.1 C 374.0 453.0 374.2 449.0 377.0 448.6 C 376.2 450.6 376.5 453.3 374.8 454.9 C 367.4 455.0 359.9 455.0 352.5 455.0 C 354.0 454.3 355.5 453.6 357.0 452.9 C 357.0 445.1 357.0 437.3 357.0 429.5 C 355.8 428.8 354.7 428.1 353.7 427.3 Z" />
<path fill="#010101" stroke="#010101" stroke-width="0.09375" d=" M 410.5 427.2 C 415.6 426.8 420.8 426.9 426.0 427.0 C 431.9 426.9 438.0 430.5 439.7 436.3 C 440.8 441.6 440.3 448.1 435.6 451.6 C 428.3 457.6 418.2 454.1 409.6 455.0 C 411.1 454.0 413.6 453.9 413.8 451.7 C 414.2 445.2 413.9 438.6 413.9 432.0 C 414.4 429.6 411.4 429.0 410.5 427.2 Z" />
<path fill="#010101" stroke="#010101" stroke-width="0.09375" d=" M 443.4 427.0 C 450.2 427.1 456.9 426.8 463.6 427.1 C 463.8 429.2 464.0 431.3 464.1 433.4 C 461.7 433.3 461.7 430.7 461.0 429.1 C 458.0 429.0 455.0 429.0 452.0 429.0 C 452.0 432.3 452.0 435.7 452.0 439.0 C 454.3 439.0 456.5 439.0 458.7 438.9 C 459.5 437.8 460.2 436.6 461.0 435.5 C 461.1 438.8 461.1 442.1 461.0 445.4 C 460.0 443.9 458.9 442.5 457.8 441.1 C 455.9 441.1 454.0 441.1 452.1 441.2 C 452.0 444.7 451.8 448.2 452.2 451.7 C 453.9 454.1 457.5 452.7 460.0 453.0 C 463.2 453.2 464.3 450.0 466.5 448.4 C 466.2 450.6 465.9 452.8 465.1 455.0 C 457.6 455.0 450.0 455.0 442.4 455.0 C 443.8 454.1 445.6 453.8 446.8 452.7 C 447.3 445.5 446.9 438.2 447.0 431.0 C 447.3 428.8 444.7 428.3 443.4 427.0 Z" />
<path fill="#ffffff" stroke="#ffffff" stroke-width="0.09375" d=" M 651.3 427.5 C 654.7 427.4 658.0 429.2 659.7 432.3 C 662.3 437.5 663.0 443.9 660.3 449.2 C 658.1 453.2 652.6 455.2 648.8 452.2 C 642.8 447.4 642.3 438.1 645.4 431.5 C 646.5 429.1 649.1 428.3 651.3 427.5 Z" />
<path fill="#ffffff" stroke="#ffffff" stroke-width="0.09375" d=" M 302.3 428.4 C 305.7 428.1 309.5 429.7 311.0 433.0 C 313.7 438.3 314.0 444.9 311.2 450.3 C 309.9 452.4 307.7 454.4 305.0 454.1 C 298.3 454.5 294.8 446.8 294.9 441.0 C 294.5 435.9 296.5 429.5 302.3 428.4 Z" />
<path fill="#ffffff" stroke="#ffffff" stroke-width="0.09375" d=" M 544.0 427.7 C 546.7 428.2 550.1 428.9 551.0 432.0 C 554.0 436.4 548.1 442.8 543.5 440.0 C 543.6 435.9 542.9 431.8 544.0 427.7 Z" />
<path fill="#ffffff" stroke="#ffffff" stroke-width="0.09375" d=" M 619.5 428.1 C 621.7 428.5 625.2 428.3 625.8 431.2 C 626.5 433.0 626.5 434.9 625.6 436.6 C 624.3 438.6 621.6 438.5 619.5 438.8 C 619.3 435.2 619.3 431.7 619.5 428.1 Z" />
<path fill="#ffffff" stroke="#ffffff" stroke-width="0.09375" d=" M 711.1 427.9 C 713.7 427.8 716.9 428.1 718.0 430.9 C 719.9 433.3 718.7 436.3 717.8 438.7 C 715.7 439.7 713.4 440.1 711.2 440.1 C 711.0 436.0 711.0 431.9 711.1 427.9 Z" />
<path fill="#ffffff" stroke="#ffffff" stroke-width="0.09375" d=" M 115.3 429.0 C 118.4 428.4 120.9 430.1 123.0 432.2 C 123.2 435.3 123.5 438.8 120.8 441.0 C 118.9 441.0 117.0 441.0 115.2 441.0 C 115.0 437.0 114.9 433.0 115.3 429.0 Z" />
<path fill="#ffffff" stroke="#ffffff" stroke-width="0.09375" d=" M 146.3 429.3 C 149.5 428.6 153.5 428.4 155.8 431.3 C 159.3 435.6 159.3 441.6 158.9 446.9 C 157.9 449.8 156.6 453.5 153.1 454.2 C 149.1 456.0 144.3 453.1 142.8 449.2 C 139.8 442.8 139.8 433.5 146.3 429.3 Z" />
<path fill="#ffffff" stroke="#ffffff" stroke-width="0.09375" d=" M 212.4 429.3 C 215.6 428.7 219.7 428.1 221.8 431.2 C 226.5 436.6 227.1 445.2 223.3 451.3 C 221.2 454.5 216.7 455.1 213.4 453.7 C 210.6 451.6 208.2 448.7 207.9 445.1 C 206.6 439.7 207.4 432.6 212.4 429.3 Z" />
<path fill="#ffffff" stroke="#ffffff" stroke-width="0.09375" d=" M 419.1 428.9 C 423.0 429.1 427.6 428.2 430.7 431.2 C 434.7 434.2 434.1 439.7 434.0 444.1 C 434.2 450.8 425.3 456.4 419.6 452.3 C 418.3 444.6 419.3 436.7 419.1 428.9 Z" />
<path fill="#ffffff" stroke="#ffffff" stroke-width="0.09375" d=" M 569.8 442.3 C 570.8 439.5 571.9 436.7 573.2 433.9 C 574.3 436.7 575.4 439.4 576.3 442.3 C 574.1 442.3 572.0 442.3 569.8 442.3 Z" />
<path fill="#ffffff" stroke="#ffffff" stroke-width="0.09375" d=" M 40.5 434.8 C 42.0 437.4 42.7 440.3 43.4 443.2 C 41.5 443.2 39.5 443.2 37.5 443.2 C 38.4 440.3 39.3 437.5 40.5 434.8 Z" />
<path fill="#ffffff" stroke="#ffffff" stroke-width="0.09375" d=" M 619.4 441.1 C 621.8 441.1 624.5 440.9 626.5 442.5 C 627.7 444.3 628.9 446.4 628.4 448.6 C 627.8 450.1 626.8 451.4 625.8 452.7 C 623.9 452.7 622.1 452.7 620.3 452.6 C 618.9 448.9 619.5 444.9 619.4 441.1 Z" />
</svg>
