<?xml version="1.0" encoding="UTF-8" standalone="no"?>
<?xml-stylesheet type="text/css" href="compass.css"?><svg
   xmlns:dc="http://purl.org/dc/elements/1.1/"
   xmlns:cc="http://creativecommons.org/ns#"
   xmlns:rdf="http://www.w3.org/1999/02/22-rdf-syntax-ns#"
   xmlns:svg="http://www.w3.org/2000/svg"
   xmlns="http://www.w3.org/2000/svg"
   xmlns:xlink="http://www.w3.org/1999/xlink"
   xmlns:sodipodi="http://sodipodi.sourceforge.net/DTD/sodipodi-0.dtd"
   xmlns:inkscape="http://www.inkscape.org/namespaces/inkscape"
   width="520"
   height="520"
   id="svg2"
   version="1.1"
   inkscape:version="0.48.1 r9760"
   sodipodi:docname="compassNorth2.svg"
   viewBox="-220 -220 520 520">
  <metadata
     id="metadata45">
    <rdf:RDF>
      <cc:Work
         rdf:about="">
        <dc:format>image/svg+xml</dc:format>
        <dc:type
           rdf:resource="http://purl.org/dc/dcmitype/StillImage" />
        <dc:title />
      </cc:Work>
    </rdf:RDF>
  </metadata>
  <defs
     id="defs43">
    <radialGradient
       id="grad1"
       cx="0"
       cy="0"
       r="207"
       fx="0"
       fy="0"
       gradientUnits="userSpaceOnUse">
      <stop
         offset="0.75"
         id="stop6"
         style="stop-color:#ffffff;stop-opacity:0" />
      <stop
         offset="0.94999999"
         id="stop8"
         style="stop-color:#ff9900;stop-opacity:1" />
      <stop
         offset="100%"
         style="stop-color:rgb(255, 255, 255);stop-opacity:0"
         id="stop10" />
    </radialGradient>
  </defs>
  <sodipodi:namedview
     pagecolor="#ffffff"
     bordercolor="#666666"
     borderopacity="1"
     objecttolerance="10"
     gridtolerance="10"
     guidetolerance="10"
     inkscape:pageopacity="0"
     inkscape:pageshadow="2"
     inkscape:window-width="1280"
     inkscape:window-height="1000"
     id="namedview41"
     showgrid="false"
     inkscape:zoom="0.41318183"
     inkscape:cx="103.74206"
     inkscape:cy="48.549074"
     inkscape:window-x="0"
     inkscape:window-y="24"
     inkscape:window-maximized="1"
     inkscape:current-layer="East"
     showguides="true"
     inkscape:guide-bbox="true">
    <inkscape:grid
       type="xygrid"
       id="grid3010"
       empspacing="5"
       visible="true"
       enabled="true"
       snapvisiblegridlinesonly="true" />
  </sodipodi:namedview>
  <g
     id="OuterCircle"
     transform="matrix(1.1428138,0,0,1.105788,0.3082736,4.614784)">
    <g
       id="g3267"
       style="opacity:0.6">
      <circle
         sodipodi:ry="207"
         sodipodi:rx="207"
         sodipodi:cy="0"
         sodipodi:cx="0"
         cy="0"
         cx="0"
         d="m 207,0 c 0,114.32294 -92.67706,207 -207,207 -114.32294,0 -207,-92.67706 -207,-207 0,-114.32294 92.67706,-207 207,-207 114.32294,0 207,92.67706 207,207 z"
         id="circle24"
         r="207"
         style="opacity:0.75;fill:url(#grad1)"
         transform="matrix(1.1052279,0,0,1.1052279,34,32)" />
    </g>
    <g
       id="g18"
       style="stroke:#ffffff;stroke-width:10"
       transform="matrix(0.96558899,0,0,0.97132415,34,32)">
      <circle
         r="211"
         id="circle20"
         d="m 211,0 c 0,116.53208 -94.46792,211 -211,211 -116.53208,0 -211,-94.46792 -211,-211 0,-116.53208 94.46792,-211 211,-211 116.53208,0 211,94.46792 211,211 z"
         cx="0"
         cy="0"
         sodipodi:cx="0"
         sodipodi:cy="0"
         sodipodi:rx="211"
         sodipodi:ry="211" />
    </g>
  </g>
  <g
     id="South"
     class="arrow"
     transform="translate(39.578383,36.970435)">
    <path
       style="fill:#ffffff;stroke:#ffffff;stroke-width:1"
       inkscape:connector-curvature="0"
       id="HalfArrow"
       d="M 39.416,95.16 C 33.65,103.95 30.76,110.5 28.93,117.18 15.24,113.43 13.54,127.15 23.04,131 13.71,145.8 7.84,173.93 0,212 L 0,103 a 103,103 0 0 0 39.416,-7.84 z" />
    <use
       height="440"
       width="440"
       y="0"
       x="0"
       id="south"
       transform="matrix(-1,0,0,1,2,0)"
       xlink:href="#HalfArrow" />
  </g>
  <g
     id="East"
     class="arrow"
     transform="matrix(0,1,-1,0,38.80621,37.220429)">
    <path
       style="fill:#ffffff;stroke:#ffffff;stroke-width:1"
       inkscape:connector-curvature="0"
       id="HalfArrow-6"
       d="M 39.416,95.16 C 33.65,103.95 30.76,110.5 28.93,117.18 15.24,113.43 13.54,127.15 23.04,131 13.71,145.8 7.84,173.93 0,212 L 0,103 a 103,103 0 0 0 39.416,-7.84 z" />
    <use
       height="440"
       width="440"
       y="0"
       x="0"
       style="fill:#ffffff"
       id="south-5"
       transform="matrix(-1,0,0,1,2,0)"
       xlink:href="#HalfArrow-6" />
  </g>
  <g
     id="North"
     class="arrow"
     transform="matrix(-1,0,0,-1,41.90278,43.783376)">
    <path
       style="fill:#ffffff;stroke:#ffffff;stroke-width:1"
       inkscape:connector-curvature="0"
       id="HalfArrow-6-0"
       d="M 39.416,95.16 C 33.65,103.95 30.76,110.5 28.93,117.18 15.24,113.43 13.54,127.15 23.04,131 13.71,145.8 7.84,173.93 0,212 L 0,103 a 103,103 0 0 0 39.416,-7.84 z" />
    <use
       height="440"
       width="440"
       y="0"
       x="0"
       style="fill:#ffffff"
       id="south-5-6"
       transform="matrix(-1,0,0,1,2,0)"
       xlink:href="#HalfArrow-6-0" />
  </g>
  <g
     id="West"
     class="arrow"
     transform="matrix(0,-1,1,0,37.374758,39.547023)">
    <path
       style="fill:#ffffff;stroke:#ffffff;stroke-width:1"
       inkscape:connector-curvature="0"
       id="HalfArrow-6-0-5"
       d="M 39.416,95.16 C 33.65,103.95 30.76,110.5 28.93,117.18 15.24,113.43 13.54,127.15 23.04,131 13.71,145.8 7.84,173.93 0,212 L 0,103 a 103,103 0 0 0 39.416,-7.84 z" />
    <use
       height="440"
       width="440"
       y="0"
       x="0"
       id="south-5-6-2"
       transform="matrix(-1,0,0,1,2,0)"
       xlink:href="#HalfArrow-6-0-5" />
  </g>
  <text
     xml:space="preserve"
     style="font-size:90px;font-style:normal;font-variant:normal;font-weight:bold;font-stretch:normal;text-align:start;line-height:129.99999523%;letter-spacing:0px;word-spacing:0px;writing-mode:lr-tb;text-anchor:start;fill:#ff7f2a;fill-opacity:1;stroke:none;font-family:Times New Roman;-inkscape-font-specification:'Times New Roman, Bold'"
     x="19.254875"
     y="-163.06676"
     id="NorthText"
     sodipodi:linespacing="130%"
     transform="scale(1.0083665,0.99170292)"><tspan
       sodipodi:role="line"
       id="tspan3024"
       x="19.254875"
       y="-163.06676"
       style="font-size:80px;font-style:normal;font-variant:normal;font-weight:bold;font-stretch:normal;text-align:start;line-height:129.99999523%;writing-mode:lr-tb;text-anchor:start;fill:#ff7f2a;stroke:#000000;stroke-width:1px;font-family:Times New Roman;-inkscape-font-specification:'Times New Roman, Bold'">N</tspan></text>
  <g
     id="InnerCircle"
     style="opacity:0.6"
     transform="translate(39.260726,41.210121)">
    <g
       style="fill:none;stroke:#ffffff;stroke-width:8"
       id="g7">
      <circle
         sodipodi:rx="75"
         sodipodi:cy="0"
         cy="0"
         cx="0"
         d="M 75,0 C 75,41.421356 41.421356,75 0,75 -41.421356,75 -75,41.421356 -75,0 c 0,-41.421356 33.578644,-75 75,-75 41.421356,0 75,33.578644 75,75 z"
         id="circle9"
         r="75"
         sodipodi:cx="0"
         sodipodi:ry="75" />
    </g>
    <g
       style="fill:none;stroke:#1b1b1b;stroke-width:1"
       id="g11">
      <circle
         sodipodi:ry="71"
         sodipodi:rx="71"
         sodipodi:cy="0"
         sodipodi:cx="0"
         cy="0"
         cx="0"
         d="M 71,0 C 71,39.212217 39.212217,71 0,71 -39.212217,71 -71,39.212217 -71,0 c 0,-39.212217 31.787783,-71 71,-71 39.212217,0 71,31.787783 71,71 z"
         id="circle13"
         r="71" />
      <circle
         sodipodi:ry="79"
         sodipodi:rx="79"
         sodipodi:cy="0"
         sodipodi:cx="0"
         cy="0"
         cx="0"
         d="M 79,0 C 79,43.630495 43.630495,79 0,79 -43.630495,79 -79,43.630495 -79,0 c 0,-43.630495 35.369505,-79 79,-79 43.630495,0 79,35.369505 79,79 z"
         id="circle15"
         r="79" />
    </g>
  </g>
</svg>
